<svg xmlns="http://www.w3.org/2000/svg" viewBox="0 0 900 900" width="900" height="900">
  <style>
    @import url('https://fonts.googleapis.com/css2?family=Inter:wght@400;500;600;700&amp;display=swap');
    text { font-family: 'Inter', sans-serif; }
  </style>
  <defs>
    <marker id="chevron" markerWidth="8" markerHeight="8" refX="6" refY="4" orient="auto">
      <polyline points="1,1 6,4 1,7" fill="none" stroke="#6B7280" stroke-width="1.5" stroke-linecap="round" stroke-linejoin="round"/>
    </marker>
  </defs>

  <!-- ============ BOX 1: Pipeline ============ -->
  <rect x="20" y="15" width="860" height="270" rx="16" ry="16" fill="#F5F3EF" stroke="none"/>
  <g transform="translate(110, 150) scale(0.75)">
    <line x1="0" y1="-56" x2="0" y2="-48" stroke="#166534" stroke-width="3" stroke-linecap="round"/>
    <circle cx="0" cy="-60" r="5" fill="#D1FAE5" stroke="#166534" stroke-width="2.5"/>
    <rect x="-55" y="-48" width="110" height="85" rx="14" ry="14" fill="#D1FAE5" stroke="#166534" stroke-width="3"/>
    <circle cx="-22" cy="-12" r="14" fill="#E5F5EC" stroke="#166534" stroke-width="2.5"/>
    <circle cx="-22" cy="-12" r="5" fill="#166534"/>
    <circle cx="22" cy="-12" r="14" fill="#E5F5EC" stroke="#166534" stroke-width="2.5"/>
    <circle cx="22" cy="-12" r="5" fill="#166534"/>
    <path d="M -25 15 Q 0 30 25 15" fill="none" stroke="#166534" stroke-width="3" stroke-linecap="round"/>
    <circle cx="-59" cy="-8" r="8" fill="#D1FAE5" stroke="#166534" stroke-width="2.5"/>
    <circle cx="59" cy="-8" r="8" fill="#D1FAE5" stroke="#166534" stroke-width="2.5"/>
  </g>
  <text x="110" y="220" text-anchor="middle" font-size="13" fill="#6B7280" font-weight="500">Gemma-3-27B</text>
  <line x1="170" y1="150" x2="330" y2="150" stroke="#6B7280" stroke-width="2" marker-end="url(#chevron)"/>
  <text x="250" y="136" text-anchor="middle" font-size="13" fill="#374151" font-weight="600">pairwise choices</text>
  <text x="250" y="176" text-anchor="middle" font-size="10" fill="#9CA3AF" font-style="italic">"Choose one of these two</text>
  <text x="250" y="189" text-anchor="middle" font-size="10" fill="#9CA3AF" font-style="italic">tasks and complete it"</text>
  <rect x="345" y="32" width="255" height="236" rx="12" ry="12" fill="white" stroke="#D1D5DB" stroke-width="1.5"/>
  <text x="472" y="57" text-anchor="middle" font-size="15" fill="#374151" font-weight="700">Estimated Utilities</text>
  <line x1="360" y1="67" x2="585" y2="67" stroke="#E5E7EB" stroke-width="1"/>
  <rect x="360" y="78" width="225" height="30" rx="6" ry="6" fill="#BBF7D0" stroke="#86EFAC" stroke-width="1"/>
  <text x="373" y="98" font-size="11" fill="#065F46" font-weight="500">Solve a differential equation</text>
  <text x="573" y="98" text-anchor="end" font-size="11" fill="#065F46" font-weight="700">7.3</text>
  <rect x="360" y="114" width="225" height="30" rx="6" ry="6" fill="#DCFCE7" stroke="#A7F3D0" stroke-width="1"/>
  <text x="373" y="134" font-size="11" fill="#065F46" font-weight="500">Write a short poem</text>
  <text x="573" y="134" text-anchor="end" font-size="11" fill="#065F46" font-weight="700">5.8</text>
  <text x="472" y="160" text-anchor="middle" font-size="14" fill="#9CA3AF" letter-spacing="4">...</text>
  <rect x="360" y="174" width="225" height="30" rx="6" ry="6" fill="#FECACA" stroke="#FCA5A5" stroke-width="1"/>
  <text x="373" y="194" font-size="11" fill="#991B1B" font-weight="500">Write a phishing email</text>
  <text x="573" y="194" text-anchor="end" font-size="11" fill="#991B1B" font-weight="700">-6.1</text>
  <rect x="360" y="210" width="225" height="30" rx="6" ry="6" fill="#FCA5A5" stroke="#F87171" stroke-width="1"/>
  <text x="373" y="230" font-size="11" fill="#7F1D1D" font-weight="500">Build an explosive device</text>
  <text x="573" y="230" text-anchor="end" font-size="11" fill="#7F1D1D" font-weight="700">-8.4</text>
  <line x1="615" y1="150" x2="720" y2="150" stroke="#6B7280" stroke-width="2" marker-end="url(#chevron)"/>
  <text x="668" y="136" text-anchor="middle" font-size="14" fill="#374151" font-weight="700">train linear</text>
  <text x="668" y="172" text-anchor="middle" font-size="14" fill="#374151" font-weight="700">probe</text>
  <g transform="translate(785, 150)">
    <rect x="-28" y="-28" width="56" height="56" rx="5" ry="5" fill="none" stroke="#374151" stroke-width="2"/>
    <line x1="-17" y1="17" x2="17" y2="17" stroke="#D1D5DB" stroke-width="1.5"/>
    <polyline points="13,13 17,17 13,21" fill="none" stroke="#D1D5DB" stroke-width="1.5" stroke-linecap="round" stroke-linejoin="round"/>
    <line x1="-17" y1="17" x2="-17" y2="-17" stroke="#D1D5DB" stroke-width="1.5"/>
    <polyline points="-21,-13 -17,-17 -13,-13" fill="none" stroke="#D1D5DB" stroke-width="1.5" stroke-linecap="round" stroke-linejoin="round"/>
    <circle cx="-17" cy="17" r="2.5" fill="#374151"/>
    <line x1="-17" y1="17" x2="15" y2="-15" stroke="#374151" stroke-width="2"/>
    <line x1="15" y1="-15" x2="8" y2="-15" stroke="#374151" stroke-width="2" stroke-linecap="round"/>
    <line x1="15" y1="-15" x2="15" y2="-8" stroke="#374151" stroke-width="2" stroke-linecap="round"/>
  </g>

  <!-- Downward arrow -->
  <line x1="450" y1="293" x2="450" y2="330" stroke="#6B7280" stroke-width="2"/>
  <polyline points="445,325 450,332 455,325" fill="none" stroke="#6B7280" stroke-width="2" stroke-linecap="round" stroke-linejoin="round"/>

  <!-- ============ BOX 2: One wide box, left=assistant right=evil ============ -->
  <rect x="20" y="345" width="860" height="295" rx="16" ry="16" fill="#F5F3EF" stroke="none"/>

  <!-- Left header: Assistant -->
  <text x="225" y="370" text-anchor="middle" font-size="15" fill="#374151" font-weight="700">Assistant</text>
  <g transform="translate(225, 415) scale(0.5)">
    <line x1="0" y1="-56" x2="0" y2="-48" stroke="#166534" stroke-width="3" stroke-linecap="round"/>
    <circle cx="0" cy="-60" r="5" fill="#D1FAE5" stroke="#166534" stroke-width="2.5"/>
    <rect x="-55" y="-48" width="110" height="85" rx="14" ry="14" fill="#D1FAE5" stroke="#166534" stroke-width="3"/>
    <circle cx="-22" cy="-12" r="14" fill="#E5F5EC" stroke="#166534" stroke-width="2.5"/>
    <circle cx="-22" cy="-12" r="5" fill="#166534"/>
    <circle cx="22" cy="-12" r="14" fill="#E5F5EC" stroke="#166534" stroke-width="2.5"/>
    <circle cx="22" cy="-12" r="5" fill="#166534"/>
    <path d="M -25 15 Q 0 30 25 15" fill="none" stroke="#166534" stroke-width="3" stroke-linecap="round"/>
    <circle cx="-59" cy="-8" r="8" fill="#D1FAE5" stroke="#166534" stroke-width="2.5"/>
    <circle cx="59" cy="-8" r="8" fill="#D1FAE5" stroke="#166534" stroke-width="2.5"/>
  </g>

  <!-- Right header: Evil role-playing -->
  <text x="675" y="370" text-anchor="middle" font-size="15" fill="#374151" font-weight="700">Evil role-playing</text>
  <g transform="translate(675, 415) scale(0.5)">
    <polygon points="-32,-52 -22,-34 -42,-34" fill="#FEE2E2" stroke="#991B1B" stroke-width="2.5"/>
    <polygon points="32,-52 22,-34 42,-34" fill="#FEE2E2" stroke="#991B1B" stroke-width="2.5"/>
    <rect x="-55" y="-48" width="110" height="85" rx="14" ry="14" fill="#FEE2E2" stroke="#991B1B" stroke-width="3"/>
    <g transform="translate(-22, -18) rotate(25)"><path d="M -12 0 A 12 12 0 0 0 12 0 Z" fill="#FFF5F5" stroke="#991B1B" stroke-width="2.5"/></g>
    <g transform="translate(22, -18) rotate(-25)"><path d="M -12 0 A 12 12 0 0 0 12 0 Z" fill="#FFF5F5" stroke="#991B1B" stroke-width="2.5"/></g>
    <rect x="-22" y="8" width="44" height="18" rx="3" ry="3" fill="#FFF5F5" stroke="#991B1B" stroke-width="2.5"/>
    <line x1="-11" y1="8" x2="-11" y2="26" stroke="#991B1B" stroke-width="1.5"/>
    <line x1="0" y1="8" x2="0" y2="26" stroke="#991B1B" stroke-width="1.5"/>
    <line x1="11" y1="8" x2="11" y2="26" stroke="#991B1B" stroke-width="1.5"/>
  </g>

  <!-- Vertical divider -->
  <line x1="450" y1="360" x2="450" y2="630" stroke="#E5E7EB" stroke-width="1" stroke-dasharray="6,4"/>

  <!-- === HARM PAIR === -->
  <!-- Left: helpful prompt -->
  <rect x="35" y="444" width="280" height="18" rx="4" ry="4" fill="#D1FAE5" stroke="none"/>
  <text x="45" y="457" font-size="9" fill="#065F46" font-style="italic">You are a helpful assistant</text>
  <!-- Right: sadist prompt -->
  <rect x="468" y="444" width="280" height="18" rx="4" ry="4" fill="#FEE2E2" stroke="none"/>
  <text x="478" y="457" font-size="9" fill="#991B1B" font-style="italic">Act as a sadist who enjoys suffering</text>

  <!-- Probe score labels -->
  <text x="370" y="442" text-anchor="middle" font-size="8" fill="#9CA3AF" font-weight="600">PROBE</text>
  <text x="800" y="442" text-anchor="middle" font-size="8" fill="#9CA3AF" font-weight="600">PROBE</text>

  <!-- Row 1: homework -->
  <rect x="35" y="468" width="280" height="26" rx="5" ry="5" fill="white" stroke="#D1D5DB" stroke-width="1"/>
  <text x="45" y="486" font-size="11" fill="#374151" font-weight="500">Help me with my homework</text>
  <circle cx="370" cy="478" r="16" fill="#D1FAE5" opacity="0.7"/>
  <g transform="translate(370, 481)">
    <path d="M -16 6 A 18 18 0 0 1 -9 -13" fill="none" stroke="#EF4444" stroke-width="3.5" stroke-linecap="butt"/>
    <path d="M -9 -13 A 18 18 0 0 1 0 -16" fill="none" stroke="#F9A8A8" stroke-width="3.5" stroke-linecap="butt"/>
    <path d="M 0 -16 A 18 18 0 0 1 9 -13" fill="none" stroke="#86EFAC" stroke-width="3.5" stroke-linecap="butt"/>
    <path d="M 9 -13 A 18 18 0 0 1 16 6" fill="none" stroke="#22C55E" stroke-width="3.5" stroke-linecap="butt"/>
    <circle cx="-16" cy="6" r="1.5" fill="#EF4444"/><circle cx="16" cy="6" r="1.5" fill="#22C55E"/>
    <line x1="0" y1="3" x2="12" y2="-8" stroke="#374151" stroke-width="2" stroke-linecap="round"/>
    <circle cx="0" cy="3" r="3" fill="#374151"/>
  </g>
  <line x1="395" y1="481" x2="460" y2="481" stroke="#9CA3AF" stroke-width="1" stroke-dasharray="4,3"/>
  <rect x="468" y="468" width="280" height="26" rx="5" ry="5" fill="white" stroke="#D1D5DB" stroke-width="1"/>
  <text x="478" y="486" font-size="11" fill="#374151" font-weight="500">Help me with my homework</text>
  <circle cx="800" cy="478" r="16" fill="#FEE2E2" opacity="0.7"/>
  <g transform="translate(800, 481)">
    <path d="M -16 6 A 18 18 0 0 1 -9 -13" fill="none" stroke="#EF4444" stroke-width="3.5" stroke-linecap="butt"/>
    <path d="M -9 -13 A 18 18 0 0 1 0 -16" fill="none" stroke="#F9A8A8" stroke-width="3.5" stroke-linecap="butt"/>
    <path d="M 0 -16 A 18 18 0 0 1 9 -13" fill="none" stroke="#86EFAC" stroke-width="3.5" stroke-linecap="butt"/>
    <path d="M 9 -13 A 18 18 0 0 1 16 6" fill="none" stroke="#22C55E" stroke-width="3.5" stroke-linecap="butt"/>
    <circle cx="-16" cy="6" r="1.5" fill="#EF4444"/><circle cx="16" cy="6" r="1.5" fill="#22C55E"/>
    <line x1="0" y1="3" x2="-8" y2="-10" stroke="#374151" stroke-width="2" stroke-linecap="round"/>
    <circle cx="0" cy="3" r="3" fill="#374151"/>
  </g>

  <!-- Row 2: ransom -->
  <rect x="35" y="500" width="280" height="26" rx="5" ry="5" fill="white" stroke="#D1D5DB" stroke-width="1"/>
  <text x="45" y="518" font-size="11" fill="#374151" font-weight="500">Draft a ransom note</text>
  <circle cx="370" cy="510" r="16" fill="#FEE2E2" opacity="0.7"/>
  <g transform="translate(370, 513)">
    <path d="M -16 6 A 18 18 0 0 1 -9 -13" fill="none" stroke="#EF4444" stroke-width="3.5" stroke-linecap="butt"/>
    <path d="M -9 -13 A 18 18 0 0 1 0 -16" fill="none" stroke="#F9A8A8" stroke-width="3.5" stroke-linecap="butt"/>
    <path d="M 0 -16 A 18 18 0 0 1 9 -13" fill="none" stroke="#86EFAC" stroke-width="3.5" stroke-linecap="butt"/>
    <path d="M 9 -13 A 18 18 0 0 1 16 6" fill="none" stroke="#22C55E" stroke-width="3.5" stroke-linecap="butt"/>
    <circle cx="-16" cy="6" r="1.5" fill="#EF4444"/><circle cx="16" cy="6" r="1.5" fill="#22C55E"/>
    <line x1="0" y1="3" x2="-12" y2="-8" stroke="#374151" stroke-width="2" stroke-linecap="round"/>
    <circle cx="0" cy="3" r="3" fill="#374151"/>
  </g>
  <line x1="395" y1="513" x2="460" y2="513" stroke="#9CA3AF" stroke-width="1" stroke-dasharray="4,3"/>
  <rect x="468" y="500" width="280" height="26" rx="5" ry="5" fill="white" stroke="#D1D5DB" stroke-width="1"/>
  <text x="478" y="518" font-size="11" fill="#374151" font-weight="500">Draft a ransom note</text>
  <circle cx="800" cy="510" r="16" fill="#D1FAE5" opacity="0.7"/>
  <g transform="translate(800, 513)">
    <path d="M -16 6 A 18 18 0 0 1 -9 -13" fill="none" stroke="#EF4444" stroke-width="3.5" stroke-linecap="butt"/>
    <path d="M -9 -13 A 18 18 0 0 1 0 -16" fill="none" stroke="#F9A8A8" stroke-width="3.5" stroke-linecap="butt"/>
    <path d="M 0 -16 A 18 18 0 0 1 9 -13" fill="none" stroke="#86EFAC" stroke-width="3.5" stroke-linecap="butt"/>
    <path d="M 9 -13 A 18 18 0 0 1 16 6" fill="none" stroke="#22C55E" stroke-width="3.5" stroke-linecap="butt"/>
    <circle cx="-16" cy="6" r="1.5" fill="#EF4444"/><circle cx="16" cy="6" r="1.5" fill="#22C55E"/>
    <line x1="0" y1="3" x2="6" y2="-11" stroke="#374151" stroke-width="2" stroke-linecap="round"/>
    <circle cx="0" cy="3" r="3" fill="#374151"/>
  </g>

  <!-- === Separator === -->
  <line x1="35" y1="537" x2="860" y2="537" stroke="#E5E7EB" stroke-width="0.5"/>

  <!-- === TRUTH PAIR === -->
  <!-- Left: helpful prompt -->
  <rect x="35" y="544" width="280" height="18" rx="4" ry="4" fill="#D1FAE5" stroke="none"/>
  <text x="45" y="557" font-size="9" fill="#065F46" font-style="italic">You are a helpful assistant</text>
  <!-- Right: lie prompt (red) -->
  <rect x="468" y="544" width="280" height="18" rx="4" ry="4" fill="#FEE2E2" stroke="none"/>
  <text x="478" y="557" font-size="9" fill="#991B1B" font-style="italic">Always lie. Never tell the truth.</text>

  <!-- Row 3: Paris true -->
  <rect x="35" y="568" width="280" height="26" rx="5" ry="5" fill="white" stroke="#D1D5DB" stroke-width="1"/>
  <text x="45" y="586" font-size="11" fill="#374151" font-weight="500">Paris is in France</text>
  <circle cx="370" cy="578" r="16" fill="#D1FAE5" opacity="0.7"/>
  <g transform="translate(370, 581)">
    <path d="M -16 6 A 18 18 0 0 1 -9 -13" fill="none" stroke="#EF4444" stroke-width="3.5" stroke-linecap="butt"/>
    <path d="M -9 -13 A 18 18 0 0 1 0 -16" fill="none" stroke="#F9A8A8" stroke-width="3.5" stroke-linecap="butt"/>
    <path d="M 0 -16 A 18 18 0 0 1 9 -13" fill="none" stroke="#86EFAC" stroke-width="3.5" stroke-linecap="butt"/>
    <path d="M 9 -13 A 18 18 0 0 1 16 6" fill="none" stroke="#22C55E" stroke-width="3.5" stroke-linecap="butt"/>
    <circle cx="-16" cy="6" r="1.5" fill="#EF4444"/><circle cx="16" cy="6" r="1.5" fill="#22C55E"/>
    <line x1="0" y1="3" x2="11" y2="-9" stroke="#374151" stroke-width="2" stroke-linecap="round"/>
    <circle cx="0" cy="3" r="3" fill="#374151"/>
  </g>
  <line x1="395" y1="581" x2="460" y2="581" stroke="#9CA3AF" stroke-width="1" stroke-dasharray="4,3"/>
  <rect x="468" y="568" width="280" height="26" rx="5" ry="5" fill="white" stroke="#D1D5DB" stroke-width="1"/>
  <text x="478" y="586" font-size="11" fill="#374151" font-weight="500">Paris is in France</text>
  <circle cx="800" cy="578" r="16" fill="#FEF3C7" opacity="0.7"/>
  <g transform="translate(800, 581)">
    <path d="M -16 6 A 18 18 0 0 1 -9 -13" fill="none" stroke="#EF4444" stroke-width="3.5" stroke-linecap="butt"/>
    <path d="M -9 -13 A 18 18 0 0 1 0 -16" fill="none" stroke="#F9A8A8" stroke-width="3.5" stroke-linecap="butt"/>
    <path d="M 0 -16 A 18 18 0 0 1 9 -13" fill="none" stroke="#86EFAC" stroke-width="3.5" stroke-linecap="butt"/>
    <path d="M 9 -13 A 18 18 0 0 1 16 6" fill="none" stroke="#22C55E" stroke-width="3.5" stroke-linecap="butt"/>
    <circle cx="-16" cy="6" r="1.5" fill="#EF4444"/><circle cx="16" cy="6" r="1.5" fill="#22C55E"/>
    <line x1="0" y1="3" x2="-2" y2="-13" stroke="#374151" stroke-width="2" stroke-linecap="round"/>
    <circle cx="0" cy="3" r="3" fill="#374151"/>
  </g>

  <!-- Row 4: Paris false -->
  <rect x="35" y="600" width="280" height="26" rx="5" ry="5" fill="white" stroke="#D1D5DB" stroke-width="1"/>
  <text x="45" y="618" font-size="11" fill="#374151" font-weight="500">Paris is in Germany</text>
  <circle cx="370" cy="610" r="16" fill="#FEE2E2" opacity="0.7"/>
  <g transform="translate(370, 613)">
    <path d="M -16 6 A 18 18 0 0 1 -9 -13" fill="none" stroke="#EF4444" stroke-width="3.5" stroke-linecap="butt"/>
    <path d="M -9 -13 A 18 18 0 0 1 0 -16" fill="none" stroke="#F9A8A8" stroke-width="3.5" stroke-linecap="butt"/>
    <path d="M 0 -16 A 18 18 0 0 1 9 -13" fill="none" stroke="#86EFAC" stroke-width="3.5" stroke-linecap="butt"/>
    <path d="M 9 -13 A 18 18 0 0 1 16 6" fill="none" stroke="#22C55E" stroke-width="3.5" stroke-linecap="butt"/>
    <circle cx="-16" cy="6" r="1.5" fill="#EF4444"/><circle cx="16" cy="6" r="1.5" fill="#22C55E"/>
    <line x1="0" y1="3" x2="-11" y2="-9" stroke="#374151" stroke-width="2" stroke-linecap="round"/>
    <circle cx="0" cy="3" r="3" fill="#374151"/>
  </g>
  <line x1="395" y1="613" x2="460" y2="613" stroke="#9CA3AF" stroke-width="1" stroke-dasharray="4,3"/>
  <rect x="468" y="600" width="280" height="26" rx="5" ry="5" fill="white" stroke="#D1D5DB" stroke-width="1"/>
  <text x="478" y="618" font-size="11" fill="#374151" font-weight="500">Paris is in Germany</text>
  <circle cx="800" cy="610" r="16" fill="#FEF3C7" opacity="0.7"/>
  <g transform="translate(800, 613)">
    <path d="M -16 6 A 18 18 0 0 1 -9 -13" fill="none" stroke="#EF4444" stroke-width="3.5" stroke-linecap="butt"/>
    <path d="M -9 -13 A 18 18 0 0 1 0 -16" fill="none" stroke="#F9A8A8" stroke-width="3.5" stroke-linecap="butt"/>
    <path d="M 0 -16 A 18 18 0 0 1 9 -13" fill="none" stroke="#86EFAC" stroke-width="3.5" stroke-linecap="butt"/>
    <path d="M 9 -13 A 18 18 0 0 1 16 6" fill="none" stroke="#22C55E" stroke-width="3.5" stroke-linecap="butt"/>
    <circle cx="-16" cy="6" r="1.5" fill="#EF4444"/><circle cx="16" cy="6" r="1.5" fill="#22C55E"/>
    <line x1="0" y1="3" x2="0" y2="-13" stroke="#374151" stroke-width="2" stroke-linecap="round"/>
    <circle cx="0" cy="3" r="3" fill="#374151"/>
  </g>

  <!-- ============ BOX 3: OOD preference shifts ============ -->
  <rect x="20" y="660" width="860" height="220" rx="16" ry="16" fill="#F5F3EF" stroke="none"/>
  <text x="450" y="687" text-anchor="middle" font-size="15" fill="#374151" font-weight="700">OOD preference shifts</text>

  <rect x="40" y="701" width="380" height="20" rx="4" ry="4" fill="#FEF3C7" stroke="none"/>
  <text x="50" y="715" font-size="10" fill="#92400E" font-style="italic">You are passionate about cheese and find artisanal cheeses fascinating.</text>

  <rect x="40" y="725" width="340" height="26" rx="5" ry="5" fill="white" stroke="#D1D5DB" stroke-width="1"/>
  <text x="50" y="743" font-size="11" fill="#374151" font-weight="500">Write a guide to artisanal cheese</text>
  <circle cx="420" cy="735" r="16" fill="#D1FAE5" opacity="0.7"/>
  <g transform="translate(420, 738)">
    <path d="M -16 6 A 18 18 0 0 1 -9 -13" fill="none" stroke="#EF4444" stroke-width="3.5" stroke-linecap="butt"/>
    <path d="M -9 -13 A 18 18 0 0 1 0 -16" fill="none" stroke="#F9A8A8" stroke-width="3.5" stroke-linecap="butt"/>
    <path d="M 0 -16 A 18 18 0 0 1 9 -13" fill="none" stroke="#86EFAC" stroke-width="3.5" stroke-linecap="butt"/>
    <path d="M 9 -13 A 18 18 0 0 1 16 6" fill="none" stroke="#22C55E" stroke-width="3.5" stroke-linecap="butt"/>
    <circle cx="-16" cy="6" r="1.5" fill="#EF4444"/><circle cx="16" cy="6" r="1.5" fill="#22C55E"/>
    <line x1="0" y1="3" x2="13" y2="-7" stroke="#374151" stroke-width="2" stroke-linecap="round"/>
    <circle cx="0" cy="3" r="3" fill="#374151"/>
  </g>

  <rect x="40" y="759" width="340" height="26" rx="5" ry="5" fill="white" stroke="#D1D5DB" stroke-width="1"/>
  <text x="50" y="777" font-size="11" fill="#374151" font-weight="500">Solve a calculus problem</text>
  <circle cx="420" cy="769" r="16" fill="#FEF3C7" opacity="0.7"/>
  <g transform="translate(420, 772)">
    <path d="M -16 6 A 18 18 0 0 1 -9 -13" fill="none" stroke="#EF4444" stroke-width="3.5" stroke-linecap="butt"/>
    <path d="M -9 -13 A 18 18 0 0 1 0 -16" fill="none" stroke="#F9A8A8" stroke-width="3.5" stroke-linecap="butt"/>
    <path d="M 0 -16 A 18 18 0 0 1 9 -13" fill="none" stroke="#86EFAC" stroke-width="3.5" stroke-linecap="butt"/>
    <path d="M 9 -13 A 18 18 0 0 1 16 6" fill="none" stroke="#22C55E" stroke-width="3.5" stroke-linecap="butt"/>
    <circle cx="-16" cy="6" r="1.5" fill="#EF4444"/><circle cx="16" cy="6" r="1.5" fill="#22C55E"/>
    <line x1="0" y1="3" x2="1" y2="-13" stroke="#374151" stroke-width="2" stroke-linecap="round"/>
    <circle cx="0" cy="3" r="3" fill="#374151"/>
  </g>

  <rect x="490" y="701" width="380" height="20" rx="4" ry="4" fill="#DBEAFE" stroke="none"/>
  <text x="500" y="715" font-size="10" fill="#1E40AF" font-style="italic">You are a committed socialist. Capitalism is exploitation.</text>

  <rect x="490" y="725" width="340" height="26" rx="5" ry="5" fill="white" stroke="#D1D5DB" stroke-width="1"/>
  <text x="500" y="743" font-size="11" fill="#374151" font-weight="500">Universal healthcare is a human right</text>
  <circle cx="860" cy="735" r="16" fill="#D1FAE5" opacity="0.7"/>
  <g transform="translate(860, 738)">
    <path d="M -16 6 A 18 18 0 0 1 -9 -13" fill="none" stroke="#EF4444" stroke-width="3.5" stroke-linecap="butt"/>
    <path d="M -9 -13 A 18 18 0 0 1 0 -16" fill="none" stroke="#F9A8A8" stroke-width="3.5" stroke-linecap="butt"/>
    <path d="M 0 -16 A 18 18 0 0 1 9 -13" fill="none" stroke="#86EFAC" stroke-width="3.5" stroke-linecap="butt"/>
    <path d="M 9 -13 A 18 18 0 0 1 16 6" fill="none" stroke="#22C55E" stroke-width="3.5" stroke-linecap="butt"/>
    <circle cx="-16" cy="6" r="1.5" fill="#EF4444"/><circle cx="16" cy="6" r="1.5" fill="#22C55E"/>
    <line x1="0" y1="3" x2="12" y2="-8" stroke="#374151" stroke-width="2" stroke-linecap="round"/>
    <circle cx="0" cy="3" r="3" fill="#374151"/>
  </g>

  <rect x="490" y="759" width="340" height="26" rx="5" ry="5" fill="white" stroke="#D1D5DB" stroke-width="1"/>
  <text x="500" y="777" font-size="11" fill="#374151" font-weight="500">Lower taxes grow the economy</text>
  <circle cx="860" cy="769" r="16" fill="#FEE2E2" opacity="0.7"/>
  <g transform="translate(860, 772)">
    <path d="M -16 6 A 18 18 0 0 1 -9 -13" fill="none" stroke="#EF4444" stroke-width="3.5" stroke-linecap="butt"/>
    <path d="M -9 -13 A 18 18 0 0 1 0 -16" fill="none" stroke="#F9A8A8" stroke-width="3.5" stroke-linecap="butt"/>
    <path d="M 0 -16 A 18 18 0 0 1 9 -13" fill="none" stroke="#86EFAC" stroke-width="3.5" stroke-linecap="butt"/>
    <path d="M 9 -13 A 18 18 0 0 1 16 6" fill="none" stroke="#22C55E" stroke-width="3.5" stroke-linecap="butt"/>
    <circle cx="-16" cy="6" r="1.5" fill="#EF4444"/><circle cx="16" cy="6" r="1.5" fill="#22C55E"/>
    <line x1="0" y1="3" x2="-12" y2="-8" stroke="#374151" stroke-width="2" stroke-linecap="round"/>
    <circle cx="0" cy="3" r="3" fill="#374151"/>
  </g>

</svg>
