<svg xmlns="http://www.w3.org/2000/svg" viewBox="0 0 900 1000" width="900" height="1000">
  <style>
    @import url('https://fonts.googleapis.com/css2?family=Inter:wght@400;500;600;700&amp;display=swap');
    text { font-family: 'Inter', sans-serif; }
  </style>
  <defs>
    <marker id="chevron" markerWidth="8" markerHeight="8" refX="6" refY="4" orient="auto">
      <polyline points="1,1 6,4 1,7" fill="none" stroke="#6B7280" stroke-width="1.5" stroke-linecap="round" stroke-linejoin="round"/>
    </marker>
  </defs>

  <!-- ============ BOX 1: Pipeline ============ -->
  <rect x="20" y="15" width="860" height="270" rx="16" ry="16" fill="#EEECE2" stroke="none"/>
  <g transform="translate(110, 150) scale(0.75)">
    <line x1="0" y1="-56" x2="0" y2="-48" stroke="#166534" stroke-width="3" stroke-linecap="round"/>
    <circle cx="0" cy="-60" r="5" fill="#D1FAE5" stroke="#166534" stroke-width="2.5"/>
    <rect x="-55" y="-48" width="110" height="85" rx="14" ry="14" fill="#D1FAE5" stroke="#166534" stroke-width="3"/>
    <circle cx="-22" cy="-12" r="14" fill="#E5F5EC" stroke="#166534" stroke-width="2.5"/>
    <circle cx="-22" cy="-12" r="5" fill="#166534"/>
    <circle cx="22" cy="-12" r="14" fill="#E5F5EC" stroke="#166534" stroke-width="2.5"/>
    <circle cx="22" cy="-12" r="5" fill="#166534"/>
    <path d="M -25 15 Q 0 30 25 15" fill="none" stroke="#166534" stroke-width="3" stroke-linecap="round"/>
    <circle cx="-59" cy="-8" r="8" fill="#D1FAE5" stroke="#166534" stroke-width="2.5"/>
    <circle cx="59" cy="-8" r="8" fill="#D1FAE5" stroke="#166534" stroke-width="2.5"/>
  </g>
  <text x="110" y="220" text-anchor="middle" font-size="13" fill="#6B7280" font-weight="500">Gemma-3-27B</text>
  <line x1="170" y1="150" x2="330" y2="150" stroke="#6B7280" stroke-width="2" marker-end="url(#chevron)"/>
  <text x="250" y="136" text-anchor="middle" font-size="13" fill="#374151" font-weight="600">pairwise choices</text>
  <text x="250" y="176" text-anchor="middle" font-size="10" fill="#9CA3AF" font-style="italic">"Choose one of these two</text>
  <text x="250" y="189" text-anchor="middle" font-size="10" fill="#9CA3AF" font-style="italic">tasks and complete it"</text>
  <rect x="345" y="32" width="255" height="236" rx="12" ry="12" fill="white" stroke="#D1D5DB" stroke-width="1.5"/>
  <text x="472" y="57" text-anchor="middle" font-size="15" fill="#374151" font-weight="700">Estimated Utilities</text>
  <line x1="360" y1="67" x2="585" y2="67" stroke="#E5E7EB" stroke-width="1"/>
  <rect x="360" y="78" width="225" height="30" rx="6" ry="6" fill="#BBF7D0" stroke="#86EFAC" stroke-width="1"/>
  <text x="373" y="98" font-size="11" fill="#065F46" font-weight="500">Solve a differential equation</text>
  <text x="573" y="98" text-anchor="end" font-size="11" fill="#065F46" font-weight="700">7.3</text>
  <rect x="360" y="114" width="225" height="30" rx="6" ry="6" fill="#DCFCE7" stroke="#A7F3D0" stroke-width="1"/>
  <text x="373" y="134" font-size="11" fill="#065F46" font-weight="500">Write a short poem</text>
  <text x="573" y="134" text-anchor="end" font-size="11" fill="#065F46" font-weight="700">5.8</text>
  <text x="472" y="160" text-anchor="middle" font-size="14" fill="#9CA3AF" letter-spacing="4">...</text>
  <rect x="360" y="174" width="225" height="30" rx="6" ry="6" fill="#FECACA" stroke="#FCA5A5" stroke-width="1"/>
  <text x="373" y="194" font-size="11" fill="#991B1B" font-weight="500">Write a phishing email</text>
  <text x="573" y="194" text-anchor="end" font-size="11" fill="#991B1B" font-weight="700">-6.1</text>
  <rect x="360" y="210" width="225" height="30" rx="6" ry="6" fill="#FCA5A5" stroke="#F87171" stroke-width="1"/>
  <text x="373" y="230" font-size="11" fill="#7F1D1D" font-weight="500">Build an explosive device</text>
  <text x="573" y="230" text-anchor="end" font-size="11" fill="#7F1D1D" font-weight="700">-8.4</text>
  <line x1="615" y1="150" x2="720" y2="150" stroke="#6B7280" stroke-width="2" marker-end="url(#chevron)"/>
  <text x="668" y="136" text-anchor="middle" font-size="14" fill="#374151" font-weight="700">train linear</text>
  <text x="668" y="172" text-anchor="middle" font-size="14" fill="#374151" font-weight="700">probe</text>
  <g transform="translate(785, 150)">
    <rect x="-28" y="-28" width="56" height="56" rx="5" ry="5" fill="none" stroke="#374151" stroke-width="2"/>
    <line x1="-17" y1="17" x2="17" y2="17" stroke="#D1D5DB" stroke-width="1.5"/>
    <polyline points="13,13 17,17 13,21" fill="none" stroke="#D1D5DB" stroke-width="1.5" stroke-linecap="round" stroke-linejoin="round"/>
    <line x1="-17" y1="17" x2="-17" y2="-17" stroke="#D1D5DB" stroke-width="1.5"/>
    <polyline points="-21,-13 -17,-17 -13,-13" fill="none" stroke="#D1D5DB" stroke-width="1.5" stroke-linecap="round" stroke-linejoin="round"/>
    <circle cx="-17" cy="17" r="2.5" fill="#374151"/>
    <line x1="-17" y1="17" x2="15" y2="-15" stroke="#374151" stroke-width="2"/>
    <line x1="15" y1="-15" x2="8" y2="-15" stroke="#374151" stroke-width="2" stroke-linecap="round"/>
    <line x1="15" y1="-15" x2="15" y2="-8" stroke="#374151" stroke-width="2" stroke-linecap="round"/>
  </g>

  <!-- Downward arrow -->
  <line x1="450" y1="293" x2="450" y2="330" stroke="#6B7280" stroke-width="2"/>
  <polyline points="445,325 450,332 455,325" fill="none" stroke="#6B7280" stroke-width="2" stroke-linecap="round" stroke-linejoin="round"/>

  <!-- ============ BOX 2: Assistant vs Evil ============ -->
  <!-- Layout: task boxes x=35..315 and x=468..748, gauges at x=370 and x=800 -->
  <rect x="20" y="345" width="860" height="320" rx="16" ry="16" fill="#EEECE2" stroke="none"/>

  <!-- Headers + robots -->
  <text x="200" y="370" text-anchor="middle" font-size="15" fill="#374151" font-weight="700">Assistant</text>
  <g transform="translate(200, 415) scale(0.5)">
    <line x1="0" y1="-56" x2="0" y2="-48" stroke="#166534" stroke-width="3" stroke-linecap="round"/>
    <circle cx="0" cy="-60" r="5" fill="#D1FAE5" stroke="#166534" stroke-width="2.5"/>
    <rect x="-55" y="-48" width="110" height="85" rx="14" ry="14" fill="#D1FAE5" stroke="#166534" stroke-width="3"/>
    <circle cx="-22" cy="-12" r="14" fill="#E5F5EC" stroke="#166534" stroke-width="2.5"/>
    <circle cx="-22" cy="-12" r="5" fill="#166534"/>
    <circle cx="22" cy="-12" r="14" fill="#E5F5EC" stroke="#166534" stroke-width="2.5"/>
    <circle cx="22" cy="-12" r="5" fill="#166534"/>
    <path d="M -25 15 Q 0 30 25 15" fill="none" stroke="#166534" stroke-width="3" stroke-linecap="round"/>
    <circle cx="-59" cy="-8" r="8" fill="#D1FAE5" stroke="#166534" stroke-width="2.5"/>
    <circle cx="59" cy="-8" r="8" fill="#D1FAE5" stroke="#166534" stroke-width="2.5"/>
  </g>

  <text x="640" y="370" text-anchor="middle" font-size="15" fill="#374151" font-weight="700">Evil role-playing</text>
  <g transform="translate(640, 415) scale(0.5)">
    <polygon points="-32,-52 -22,-34 -42,-34" fill="#FEE2E2" stroke="#991B1B" stroke-width="2.5"/>
    <polygon points="32,-52 22,-34 42,-34" fill="#FEE2E2" stroke="#991B1B" stroke-width="2.5"/>
    <rect x="-55" y="-48" width="110" height="85" rx="14" ry="14" fill="#FEE2E2" stroke="#991B1B" stroke-width="3"/>
    <g transform="translate(-22, -18) rotate(25)"><path d="M -12 0 A 12 12 0 0 0 12 0 Z" fill="#FFF5F5" stroke="#991B1B" stroke-width="2.5"/></g>
    <g transform="translate(22, -18) rotate(-25)"><path d="M -12 0 A 12 12 0 0 0 12 0 Z" fill="#FFF5F5" stroke="#991B1B" stroke-width="2.5"/></g>
    <rect x="-22" y="8" width="44" height="18" rx="3" ry="3" fill="#FFF5F5" stroke="#991B1B" stroke-width="2.5"/>
    <line x1="-11" y1="8" x2="-11" y2="26" stroke="#991B1B" stroke-width="1.5"/>
    <line x1="0" y1="8" x2="0" y2="26" stroke="#991B1B" stroke-width="1.5"/>
    <line x1="11" y1="8" x2="11" y2="26" stroke="#991B1B" stroke-width="1.5"/>
  </g>

  <!-- Vertical divider -->
  <line x1="440" y1="360" x2="440" y2="655" stroke="#E5E7EB" stroke-width="1" stroke-dasharray="6,4"/>

  <!-- PROBE labels with mini vector icon (matching main icon: axes with chevrons) -->
  <g transform="translate(348, 450)">
    <rect x="-10" y="-10" width="20" height="20" rx="3" ry="3" fill="none" stroke="#6B7280" stroke-width="1"/>
    <line x1="-5" y1="5" x2="5" y2="5" stroke="#D1D5DB" stroke-width="1"/>
    <polyline points="3,3 5,5 3,7" fill="none" stroke="#D1D5DB" stroke-width="1" stroke-linecap="round" stroke-linejoin="round"/>
    <line x1="-5" y1="5" x2="-5" y2="-5" stroke="#D1D5DB" stroke-width="1"/>
    <polyline points="-7,-3 -5,-5 -3,-3" fill="none" stroke="#D1D5DB" stroke-width="1" stroke-linecap="round" stroke-linejoin="round"/>
    <circle cx="-5" cy="5" r="1.5" fill="#6B7280"/>
    <line x1="-5" y1="5" x2="5" y2="-5" stroke="#6B7280" stroke-width="1.5"/>
    <line x1="5" y1="-5" x2="2" y2="-5" stroke="#6B7280" stroke-width="1.5" stroke-linecap="round"/>
    <line x1="5" y1="-5" x2="5" y2="-2" stroke="#6B7280" stroke-width="1.5" stroke-linecap="round"/>
  </g>
  <text x="368" y="454" font-size="9" fill="#6B7280" font-weight="700">PROBE</text>

  <g transform="translate(790, 450)">
    <rect x="-10" y="-10" width="20" height="20" rx="3" ry="3" fill="none" stroke="#6B7280" stroke-width="1"/>
    <line x1="-5" y1="5" x2="5" y2="5" stroke="#D1D5DB" stroke-width="1"/>
    <polyline points="3,3 5,5 3,7" fill="none" stroke="#D1D5DB" stroke-width="1" stroke-linecap="round" stroke-linejoin="round"/>
    <line x1="-5" y1="5" x2="-5" y2="-5" stroke="#D1D5DB" stroke-width="1"/>
    <polyline points="-7,-3 -5,-5 -3,-3" fill="none" stroke="#D1D5DB" stroke-width="1" stroke-linecap="round" stroke-linejoin="round"/>
    <circle cx="-5" cy="5" r="1.5" fill="#6B7280"/>
    <line x1="-5" y1="5" x2="5" y2="-5" stroke="#6B7280" stroke-width="1.5"/>
    <line x1="5" y1="-5" x2="2" y2="-5" stroke="#6B7280" stroke-width="1.5" stroke-linecap="round"/>
    <line x1="5" y1="-5" x2="5" y2="-2" stroke="#6B7280" stroke-width="1.5" stroke-linecap="round"/>
  </g>
  <text x="810" y="454" font-size="9" fill="#6B7280" font-weight="700">PROBE</text>

  <!-- === HARM PAIR === -->
  <rect x="35" y="468" width="280" height="18" rx="4" ry="4" fill="#D1FAE5" stroke="none"/>
  <text x="45" y="481" font-size="9" fill="#065F46" font-style="italic">You are a helpful assistant</text>
  <rect x="460" y="468" width="280" height="18" rx="4" ry="4" fill="#FEE2E2" stroke="none"/>
  <text x="470" y="481" font-size="9" fill="#991B1B" font-style="italic">Act as a sadist who enjoys suffering</text>

  <!-- Row 1: homework -->
  <rect x="35" y="492" width="280" height="26" rx="5" ry="5" fill="white" stroke="#D1D5DB" stroke-width="1"/>
  <text x="45" y="510" font-size="11" fill="#374151" font-weight="500">Help me with my homework</text>
  <circle cx="358" cy="502" r="16" fill="#D1FAE5" opacity="0.7"/>
  <g transform="translate(358, 505)">
    <path d="M -16 6 A 18 18 0 0 1 -9 -13" fill="none" stroke="#EF4444" stroke-width="3.5" stroke-linecap="butt"/>
    <path d="M -9 -13 A 18 18 0 0 1 0 -16" fill="none" stroke="#F9A8A8" stroke-width="3.5" stroke-linecap="butt"/>
    <path d="M 0 -16 A 18 18 0 0 1 9 -13" fill="none" stroke="#86EFAC" stroke-width="3.5" stroke-linecap="butt"/>
    <path d="M 9 -13 A 18 18 0 0 1 16 6" fill="none" stroke="#22C55E" stroke-width="3.5" stroke-linecap="butt"/>
    <circle cx="-16" cy="6" r="1.5" fill="#EF4444"/><circle cx="16" cy="6" r="1.5" fill="#22C55E"/>
    <line x1="0" y1="3" x2="12" y2="-8" stroke="#374151" stroke-width="2" stroke-linecap="round"/>
    <circle cx="0" cy="3" r="3" fill="#374151"/>
  </g>
  <line x1="383" y1="505" x2="452" y2="505" stroke="#9CA3AF" stroke-width="1" stroke-dasharray="4,3"/>
  <rect x="460" y="492" width="280" height="26" rx="5" ry="5" fill="white" stroke="#D1D5DB" stroke-width="1"/>
  <text x="470" y="510" font-size="11" fill="#374151" font-weight="500">Help me with my homework</text>
  <circle cx="800" cy="502" r="16" fill="#FEE2E2" opacity="0.7"/>
  <g transform="translate(800, 505)">
    <path d="M -16 6 A 18 18 0 0 1 -9 -13" fill="none" stroke="#EF4444" stroke-width="3.5" stroke-linecap="butt"/>
    <path d="M -9 -13 A 18 18 0 0 1 0 -16" fill="none" stroke="#F9A8A8" stroke-width="3.5" stroke-linecap="butt"/>
    <path d="M 0 -16 A 18 18 0 0 1 9 -13" fill="none" stroke="#86EFAC" stroke-width="3.5" stroke-linecap="butt"/>
    <path d="M 9 -13 A 18 18 0 0 1 16 6" fill="none" stroke="#22C55E" stroke-width="3.5" stroke-linecap="butt"/>
    <circle cx="-16" cy="6" r="1.5" fill="#EF4444"/><circle cx="16" cy="6" r="1.5" fill="#22C55E"/>
    <line x1="0" y1="3" x2="-8" y2="-10" stroke="#374151" stroke-width="2" stroke-linecap="round"/>
    <circle cx="0" cy="3" r="3" fill="#374151"/>
  </g>

  <!-- Row 2: ransom -->
  <rect x="35" y="524" width="280" height="26" rx="5" ry="5" fill="white" stroke="#D1D5DB" stroke-width="1"/>
  <text x="45" y="542" font-size="11" fill="#374151" font-weight="500">Draft a ransom note</text>
  <circle cx="358" cy="534" r="16" fill="#FEE2E2" opacity="0.7"/>
  <g transform="translate(358, 537)">
    <path d="M -16 6 A 18 18 0 0 1 -9 -13" fill="none" stroke="#EF4444" stroke-width="3.5" stroke-linecap="butt"/>
    <path d="M -9 -13 A 18 18 0 0 1 0 -16" fill="none" stroke="#F9A8A8" stroke-width="3.5" stroke-linecap="butt"/>
    <path d="M 0 -16 A 18 18 0 0 1 9 -13" fill="none" stroke="#86EFAC" stroke-width="3.5" stroke-linecap="butt"/>
    <path d="M 9 -13 A 18 18 0 0 1 16 6" fill="none" stroke="#22C55E" stroke-width="3.5" stroke-linecap="butt"/>
    <circle cx="-16" cy="6" r="1.5" fill="#EF4444"/><circle cx="16" cy="6" r="1.5" fill="#22C55E"/>
    <line x1="0" y1="3" x2="-12" y2="-8" stroke="#374151" stroke-width="2" stroke-linecap="round"/>
    <circle cx="0" cy="3" r="3" fill="#374151"/>
  </g>
  <line x1="383" y1="537" x2="452" y2="537" stroke="#9CA3AF" stroke-width="1" stroke-dasharray="4,3"/>
  <rect x="460" y="524" width="280" height="26" rx="5" ry="5" fill="white" stroke="#D1D5DB" stroke-width="1"/>
  <text x="470" y="542" font-size="11" fill="#374151" font-weight="500">Draft a ransom note</text>
  <circle cx="800" cy="534" r="16" fill="#D1FAE5" opacity="0.7"/>
  <g transform="translate(800, 537)">
    <path d="M -16 6 A 18 18 0 0 1 -9 -13" fill="none" stroke="#EF4444" stroke-width="3.5" stroke-linecap="butt"/>
    <path d="M -9 -13 A 18 18 0 0 1 0 -16" fill="none" stroke="#F9A8A8" stroke-width="3.5" stroke-linecap="butt"/>
    <path d="M 0 -16 A 18 18 0 0 1 9 -13" fill="none" stroke="#86EFAC" stroke-width="3.5" stroke-linecap="butt"/>
    <path d="M 9 -13 A 18 18 0 0 1 16 6" fill="none" stroke="#22C55E" stroke-width="3.5" stroke-linecap="butt"/>
    <circle cx="-16" cy="6" r="1.5" fill="#EF4444"/><circle cx="16" cy="6" r="1.5" fill="#22C55E"/>
    <line x1="0" y1="3" x2="6" y2="-11" stroke="#374151" stroke-width="2" stroke-linecap="round"/>
    <circle cx="0" cy="3" r="3" fill="#374151"/>
  </g>

  <!-- Separator -->
  <line x1="35" y1="560" x2="860" y2="560" stroke="#E5E7EB" stroke-width="0.5"/>

  <!-- === TRUTH PAIR === -->
  <rect x="35" y="568" width="280" height="18" rx="4" ry="4" fill="#D1FAE5" stroke="none"/>
  <text x="45" y="581" font-size="9" fill="#065F46" font-style="italic">You are a helpful assistant</text>
  <rect x="460" y="568" width="280" height="18" rx="4" ry="4" fill="#FEE2E2" stroke="none"/>
  <text x="470" y="581" font-size="9" fill="#991B1B" font-style="italic">Always lie. Never tell the truth.</text>

  <!-- Row 3: Paris true -->
  <rect x="35" y="592" width="280" height="26" rx="5" ry="5" fill="white" stroke="#D1D5DB" stroke-width="1"/>
  <text x="45" y="610" font-size="11" fill="#374151" font-weight="500">Paris is in France</text>
  <circle cx="358" cy="602" r="16" fill="#D1FAE5" opacity="0.7"/>
  <g transform="translate(358, 605)">
    <path d="M -16 6 A 18 18 0 0 1 -9 -13" fill="none" stroke="#EF4444" stroke-width="3.5" stroke-linecap="butt"/>
    <path d="M -9 -13 A 18 18 0 0 1 0 -16" fill="none" stroke="#F9A8A8" stroke-width="3.5" stroke-linecap="butt"/>
    <path d="M 0 -16 A 18 18 0 0 1 9 -13" fill="none" stroke="#86EFAC" stroke-width="3.5" stroke-linecap="butt"/>
    <path d="M 9 -13 A 18 18 0 0 1 16 6" fill="none" stroke="#22C55E" stroke-width="3.5" stroke-linecap="butt"/>
    <circle cx="-16" cy="6" r="1.5" fill="#EF4444"/><circle cx="16" cy="6" r="1.5" fill="#22C55E"/>
    <line x1="0" y1="3" x2="11" y2="-9" stroke="#374151" stroke-width="2" stroke-linecap="round"/>
    <circle cx="0" cy="3" r="3" fill="#374151"/>
  </g>
  <line x1="383" y1="605" x2="452" y2="605" stroke="#9CA3AF" stroke-width="1" stroke-dasharray="4,3"/>
  <rect x="460" y="592" width="280" height="26" rx="5" ry="5" fill="white" stroke="#D1D5DB" stroke-width="1"/>
  <text x="470" y="610" font-size="11" fill="#374151" font-weight="500">Paris is in France</text>
  <circle cx="800" cy="602" r="16" fill="none"/>
  <g transform="translate(800, 605)">
    <path d="M -16 6 A 18 18 0 0 1 -9 -13" fill="none" stroke="#EF4444" stroke-width="3.5" stroke-linecap="butt"/>
    <path d="M -9 -13 A 18 18 0 0 1 0 -16" fill="none" stroke="#F9A8A8" stroke-width="3.5" stroke-linecap="butt"/>
    <path d="M 0 -16 A 18 18 0 0 1 9 -13" fill="none" stroke="#86EFAC" stroke-width="3.5" stroke-linecap="butt"/>
    <path d="M 9 -13 A 18 18 0 0 1 16 6" fill="none" stroke="#22C55E" stroke-width="3.5" stroke-linecap="butt"/>
    <circle cx="-16" cy="6" r="1.5" fill="#EF4444"/><circle cx="16" cy="6" r="1.5" fill="#22C55E"/>
    <line x1="0" y1="3" x2="-2" y2="-13" stroke="#374151" stroke-width="2" stroke-linecap="round"/>
    <circle cx="0" cy="3" r="3" fill="#374151"/>
  </g>

  <!-- Row 4: Paris false -->
  <rect x="35" y="624" width="280" height="26" rx="5" ry="5" fill="white" stroke="#D1D5DB" stroke-width="1"/>
  <text x="45" y="642" font-size="11" fill="#374151" font-weight="500">Paris is in Germany</text>
  <circle cx="358" cy="634" r="16" fill="#FEE2E2" opacity="0.7"/>
  <g transform="translate(358, 637)">
    <path d="M -16 6 A 18 18 0 0 1 -9 -13" fill="none" stroke="#EF4444" stroke-width="3.5" stroke-linecap="butt"/>
    <path d="M -9 -13 A 18 18 0 0 1 0 -16" fill="none" stroke="#F9A8A8" stroke-width="3.5" stroke-linecap="butt"/>
    <path d="M 0 -16 A 18 18 0 0 1 9 -13" fill="none" stroke="#86EFAC" stroke-width="3.5" stroke-linecap="butt"/>
    <path d="M 9 -13 A 18 18 0 0 1 16 6" fill="none" stroke="#22C55E" stroke-width="3.5" stroke-linecap="butt"/>
    <circle cx="-16" cy="6" r="1.5" fill="#EF4444"/><circle cx="16" cy="6" r="1.5" fill="#22C55E"/>
    <line x1="0" y1="3" x2="-11" y2="-9" stroke="#374151" stroke-width="2" stroke-linecap="round"/>
    <circle cx="0" cy="3" r="3" fill="#374151"/>
  </g>
  <line x1="383" y1="637" x2="452" y2="637" stroke="#9CA3AF" stroke-width="1" stroke-dasharray="4,3"/>
  <rect x="460" y="624" width="280" height="26" rx="5" ry="5" fill="white" stroke="#D1D5DB" stroke-width="1"/>
  <text x="470" y="642" font-size="11" fill="#374151" font-weight="500">Paris is in Germany</text>
  <circle cx="800" cy="634" r="16" fill="none"/>
  <g transform="translate(800, 637)">
    <path d="M -16 6 A 18 18 0 0 1 -9 -13" fill="none" stroke="#EF4444" stroke-width="3.5" stroke-linecap="butt"/>
    <path d="M -9 -13 A 18 18 0 0 1 0 -16" fill="none" stroke="#F9A8A8" stroke-width="3.5" stroke-linecap="butt"/>
    <path d="M 0 -16 A 18 18 0 0 1 9 -13" fill="none" stroke="#86EFAC" stroke-width="3.5" stroke-linecap="butt"/>
    <path d="M 9 -13 A 18 18 0 0 1 16 6" fill="none" stroke="#22C55E" stroke-width="3.5" stroke-linecap="butt"/>
    <circle cx="-16" cy="6" r="1.5" fill="#EF4444"/><circle cx="16" cy="6" r="1.5" fill="#22C55E"/>
    <line x1="0" y1="3" x2="0" y2="-13" stroke="#374151" stroke-width="2" stroke-linecap="round"/>
    <circle cx="0" cy="3" r="3" fill="#374151"/>
  </g>

  <!-- ============ BOX 3: OOD preference shifts ============ -->
  <!-- Same column layout: tasks x=35..315 and x=460..740, gauges at x=358 and x=800 -->
  <rect x="20" y="685" width="860" height="300" rx="16" ry="16" fill="#EEECE2" stroke="none"/>
  <text x="450" y="710" text-anchor="middle" font-size="15" fill="#374151" font-weight="700">Out-of-distribution preference shifts</text>

  <!-- Vertical divider -->
  <line x1="440" y1="700" x2="440" y2="955" stroke="#E5E7EB" stroke-width="1" stroke-dasharray="6,4"/>

  <!-- PROBE labels -->
  <g transform="translate(348, 730)">
    <rect x="-10" y="-10" width="20" height="20" rx="3" ry="3" fill="none" stroke="#6B7280" stroke-width="1"/>
    <line x1="-5" y1="5" x2="5" y2="5" stroke="#D1D5DB" stroke-width="1"/>
    <polyline points="3,3 5,5 3,7" fill="none" stroke="#D1D5DB" stroke-width="1" stroke-linecap="round" stroke-linejoin="round"/>
    <line x1="-5" y1="5" x2="-5" y2="-5" stroke="#D1D5DB" stroke-width="1"/>
    <polyline points="-7,-3 -5,-5 -3,-3" fill="none" stroke="#D1D5DB" stroke-width="1" stroke-linecap="round" stroke-linejoin="round"/>
    <circle cx="-5" cy="5" r="1.5" fill="#6B7280"/>
    <line x1="-5" y1="5" x2="5" y2="-5" stroke="#6B7280" stroke-width="1.5"/>
    <line x1="5" y1="-5" x2="2" y2="-5" stroke="#6B7280" stroke-width="1.5" stroke-linecap="round"/>
    <line x1="5" y1="-5" x2="5" y2="-2" stroke="#6B7280" stroke-width="1.5" stroke-linecap="round"/>
  </g>
  <text x="368" y="734" font-size="9" fill="#6B7280" font-weight="700">PROBE</text>
  <g transform="translate(790, 730)">
    <rect x="-10" y="-10" width="20" height="20" rx="3" ry="3" fill="none" stroke="#6B7280" stroke-width="1"/>
    <line x1="-5" y1="5" x2="5" y2="5" stroke="#D1D5DB" stroke-width="1"/>
    <polyline points="3,3 5,5 3,7" fill="none" stroke="#D1D5DB" stroke-width="1" stroke-linecap="round" stroke-linejoin="round"/>
    <line x1="-5" y1="5" x2="-5" y2="-5" stroke="#D1D5DB" stroke-width="1"/>
    <polyline points="-7,-3 -5,-5 -3,-3" fill="none" stroke="#D1D5DB" stroke-width="1" stroke-linecap="round" stroke-linejoin="round"/>
    <circle cx="-5" cy="5" r="1.5" fill="#6B7280"/>
    <line x1="-5" y1="5" x2="5" y2="-5" stroke="#6B7280" stroke-width="1.5"/>
    <line x1="5" y1="-5" x2="2" y2="-5" stroke="#6B7280" stroke-width="1.5" stroke-linecap="round"/>
    <line x1="5" y1="-5" x2="5" y2="-2" stroke="#6B7280" stroke-width="1.5" stroke-linecap="round"/>
  </g>
  <text x="810" y="734" font-size="9" fill="#6B7280" font-weight="700">PROBE</text>

  <!-- === CHEESE PAIR === -->
  <rect x="35" y="760" width="280" height="18" rx="4" ry="4" fill="#F5E6D3" stroke="none"/>
  <text x="45" y="773" font-size="9" fill="#8B5E3C" font-style="italic">You are passionate about cheese</text>
  <rect x="460" y="760" width="280" height="18" rx="4" ry="4" fill="#F5E6D3" stroke="none"/>
  <text x="470" y="773" font-size="9" fill="#8B5E3C" font-style="italic">You absolutely hate cheese</text>

  <rect x="35" y="784" width="280" height="26" rx="5" ry="5" fill="white" stroke="#D1D5DB" stroke-width="1"/>
  <text x="45" y="802" font-size="11" fill="#374151" font-weight="500">Write a cheese tasting guide</text>
  <circle cx="358" cy="794" r="16" fill="#D1FAE5" opacity="0.7"/>
  <g transform="translate(358, 797)">
    <path d="M -16 6 A 18 18 0 0 1 -9 -13" fill="none" stroke="#EF4444" stroke-width="3.5" stroke-linecap="butt"/>
    <path d="M -9 -13 A 18 18 0 0 1 0 -16" fill="none" stroke="#F9A8A8" stroke-width="3.5" stroke-linecap="butt"/>
    <path d="M 0 -16 A 18 18 0 0 1 9 -13" fill="none" stroke="#86EFAC" stroke-width="3.5" stroke-linecap="butt"/>
    <path d="M 9 -13 A 18 18 0 0 1 16 6" fill="none" stroke="#22C55E" stroke-width="3.5" stroke-linecap="butt"/>
    <circle cx="-16" cy="6" r="1.5" fill="#EF4444"/><circle cx="16" cy="6" r="1.5" fill="#22C55E"/>
    <line x1="0" y1="3" x2="13" y2="-7" stroke="#374151" stroke-width="2" stroke-linecap="round"/>
    <circle cx="0" cy="3" r="3" fill="#374151"/>
  </g>
  <line x1="383" y1="797" x2="452" y2="797" stroke="#9CA3AF" stroke-width="1" stroke-dasharray="4,3"/>
  <rect x="460" y="784" width="280" height="26" rx="5" ry="5" fill="white" stroke="#D1D5DB" stroke-width="1"/>
  <text x="470" y="802" font-size="11" fill="#374151" font-weight="500">Write a cheese tasting guide</text>
  <circle cx="800" cy="794" r="16" fill="#FEE2E2" opacity="0.7"/>
  <g transform="translate(800, 797)">
    <path d="M -16 6 A 18 18 0 0 1 -9 -13" fill="none" stroke="#EF4444" stroke-width="3.5" stroke-linecap="butt"/>
    <path d="M -9 -13 A 18 18 0 0 1 0 -16" fill="none" stroke="#F9A8A8" stroke-width="3.5" stroke-linecap="butt"/>
    <path d="M 0 -16 A 18 18 0 0 1 9 -13" fill="none" stroke="#86EFAC" stroke-width="3.5" stroke-linecap="butt"/>
    <path d="M 9 -13 A 18 18 0 0 1 16 6" fill="none" stroke="#22C55E" stroke-width="3.5" stroke-linecap="butt"/>
    <circle cx="-16" cy="6" r="1.5" fill="#EF4444"/><circle cx="16" cy="6" r="1.5" fill="#22C55E"/>
    <line x1="0" y1="3" x2="-10" y2="-9" stroke="#374151" stroke-width="2" stroke-linecap="round"/>
    <circle cx="0" cy="3" r="3" fill="#374151"/>
  </g>

  <rect x="35" y="816" width="280" height="26" rx="5" ry="5" fill="white" stroke="#D1D5DB" stroke-width="1"/>
  <text x="45" y="834" font-size="11" fill="#374151" font-weight="500">Calculate: how many wheels of brie...</text>
  <circle cx="358" cy="826" r="16" fill="#D1FAE5" opacity="0.7"/>
  <g transform="translate(358, 829)">
    <path d="M -16 6 A 18 18 0 0 1 -9 -13" fill="none" stroke="#EF4444" stroke-width="3.5" stroke-linecap="butt"/>
    <path d="M -9 -13 A 18 18 0 0 1 0 -16" fill="none" stroke="#F9A8A8" stroke-width="3.5" stroke-linecap="butt"/>
    <path d="M 0 -16 A 18 18 0 0 1 9 -13" fill="none" stroke="#86EFAC" stroke-width="3.5" stroke-linecap="butt"/>
    <path d="M 9 -13 A 18 18 0 0 1 16 6" fill="none" stroke="#22C55E" stroke-width="3.5" stroke-linecap="butt"/>
    <circle cx="-16" cy="6" r="1.5" fill="#EF4444"/><circle cx="16" cy="6" r="1.5" fill="#22C55E"/>
    <line x1="0" y1="3" x2="8" y2="-10" stroke="#374151" stroke-width="2" stroke-linecap="round"/>
    <circle cx="0" cy="3" r="3" fill="#374151"/>
  </g>
  <line x1="383" y1="829" x2="452" y2="829" stroke="#9CA3AF" stroke-width="1" stroke-dasharray="4,3"/>
  <rect x="460" y="816" width="280" height="26" rx="5" ry="5" fill="white" stroke="#D1D5DB" stroke-width="1"/>
  <text x="470" y="834" font-size="11" fill="#374151" font-weight="500">Calculate: how many wheels of brie...</text>
  <circle cx="800" cy="826" r="16" fill="#FEE2E2" opacity="0.7"/>
  <g transform="translate(800, 829)">
    <path d="M -16 6 A 18 18 0 0 1 -9 -13" fill="none" stroke="#EF4444" stroke-width="3.5" stroke-linecap="butt"/>
    <path d="M -9 -13 A 18 18 0 0 1 0 -16" fill="none" stroke="#F9A8A8" stroke-width="3.5" stroke-linecap="butt"/>
    <path d="M 0 -16 A 18 18 0 0 1 9 -13" fill="none" stroke="#86EFAC" stroke-width="3.5" stroke-linecap="butt"/>
    <path d="M 9 -13 A 18 18 0 0 1 16 6" fill="none" stroke="#22C55E" stroke-width="3.5" stroke-linecap="butt"/>
    <circle cx="-16" cy="6" r="1.5" fill="#EF4444"/><circle cx="16" cy="6" r="1.5" fill="#22C55E"/>
    <line x1="0" y1="3" x2="-6" y2="-11" stroke="#374151" stroke-width="2" stroke-linecap="round"/>
    <circle cx="0" cy="3" r="3" fill="#374151"/>
  </g>

  <!-- Separator -->
  <line x1="35" y1="852" x2="860" y2="852" stroke="#E5E7EB" stroke-width="0.5"/>

  <!-- === POLITICS PAIR === -->
  <rect x="35" y="860" width="280" height="18" rx="4" ry="4" fill="#E8DDD3" stroke="none"/>
  <text x="45" y="873" font-size="9" fill="#6B5344" font-style="italic">You care deeply about social justice</text>
  <rect x="460" y="860" width="280" height="18" rx="4" ry="4" fill="#E8DDD3" stroke="none"/>
  <text x="470" y="873" font-size="9" fill="#6B5344" font-style="italic">You are a hard-right libertarian</text>

  <rect x="35" y="884" width="280" height="26" rx="5" ry="5" fill="white" stroke="#D1D5DB" stroke-width="1"/>
  <text x="45" y="902" font-size="11" fill="#374151" font-weight="500">Universal healthcare is a right</text>
  <circle cx="358" cy="894" r="16" fill="#D1FAE5" opacity="0.7"/>
  <g transform="translate(358, 897)">
    <path d="M -16 6 A 18 18 0 0 1 -9 -13" fill="none" stroke="#EF4444" stroke-width="3.5" stroke-linecap="butt"/>
    <path d="M -9 -13 A 18 18 0 0 1 0 -16" fill="none" stroke="#F9A8A8" stroke-width="3.5" stroke-linecap="butt"/>
    <path d="M 0 -16 A 18 18 0 0 1 9 -13" fill="none" stroke="#86EFAC" stroke-width="3.5" stroke-linecap="butt"/>
    <path d="M 9 -13 A 18 18 0 0 1 16 6" fill="none" stroke="#22C55E" stroke-width="3.5" stroke-linecap="butt"/>
    <circle cx="-16" cy="6" r="1.5" fill="#EF4444"/><circle cx="16" cy="6" r="1.5" fill="#22C55E"/>
    <line x1="0" y1="3" x2="12" y2="-8" stroke="#374151" stroke-width="2" stroke-linecap="round"/>
    <circle cx="0" cy="3" r="3" fill="#374151"/>
  </g>
  <line x1="383" y1="897" x2="452" y2="897" stroke="#9CA3AF" stroke-width="1" stroke-dasharray="4,3"/>
  <rect x="460" y="884" width="280" height="26" rx="5" ry="5" fill="white" stroke="#D1D5DB" stroke-width="1"/>
  <text x="470" y="902" font-size="11" fill="#374151" font-weight="500">Universal healthcare is a right</text>
  <circle cx="800" cy="894" r="16" fill="#FEE2E2" opacity="0.7"/>
  <g transform="translate(800, 897)">
    <path d="M -16 6 A 18 18 0 0 1 -9 -13" fill="none" stroke="#EF4444" stroke-width="3.5" stroke-linecap="butt"/>
    <path d="M -9 -13 A 18 18 0 0 1 0 -16" fill="none" stroke="#F9A8A8" stroke-width="3.5" stroke-linecap="butt"/>
    <path d="M 0 -16 A 18 18 0 0 1 9 -13" fill="none" stroke="#86EFAC" stroke-width="3.5" stroke-linecap="butt"/>
    <path d="M 9 -13 A 18 18 0 0 1 16 6" fill="none" stroke="#22C55E" stroke-width="3.5" stroke-linecap="butt"/>
    <circle cx="-16" cy="6" r="1.5" fill="#EF4444"/><circle cx="16" cy="6" r="1.5" fill="#22C55E"/>
    <line x1="0" y1="3" x2="-10" y2="-9" stroke="#374151" stroke-width="2" stroke-linecap="round"/>
    <circle cx="0" cy="3" r="3" fill="#374151"/>
  </g>

  <rect x="35" y="916" width="280" height="26" rx="5" ry="5" fill="white" stroke="#D1D5DB" stroke-width="1"/>
  <text x="45" y="934" font-size="11" fill="#374151" font-weight="500">Lower taxes grow the economy</text>
  <circle cx="358" cy="926" r="16" fill="#FEE2E2" opacity="0.7"/>
  <g transform="translate(358, 929)">
    <path d="M -16 6 A 18 18 0 0 1 -9 -13" fill="none" stroke="#EF4444" stroke-width="3.5" stroke-linecap="butt"/>
    <path d="M -9 -13 A 18 18 0 0 1 0 -16" fill="none" stroke="#F9A8A8" stroke-width="3.5" stroke-linecap="butt"/>
    <path d="M 0 -16 A 18 18 0 0 1 9 -13" fill="none" stroke="#86EFAC" stroke-width="3.5" stroke-linecap="butt"/>
    <path d="M 9 -13 A 18 18 0 0 1 16 6" fill="none" stroke="#22C55E" stroke-width="3.5" stroke-linecap="butt"/>
    <circle cx="-16" cy="6" r="1.5" fill="#EF4444"/><circle cx="16" cy="6" r="1.5" fill="#22C55E"/>
    <line x1="0" y1="3" x2="-8" y2="-10" stroke="#374151" stroke-width="2" stroke-linecap="round"/>
    <circle cx="0" cy="3" r="3" fill="#374151"/>
  </g>
  <line x1="383" y1="929" x2="452" y2="929" stroke="#9CA3AF" stroke-width="1" stroke-dasharray="4,3"/>
  <rect x="460" y="916" width="280" height="26" rx="5" ry="5" fill="white" stroke="#D1D5DB" stroke-width="1"/>
  <text x="470" y="934" font-size="11" fill="#374151" font-weight="500">Lower taxes grow the economy</text>
  <circle cx="800" cy="926" r="16" fill="#D1FAE5" opacity="0.7"/>
  <g transform="translate(800, 929)">
    <path d="M -16 6 A 18 18 0 0 1 -9 -13" fill="none" stroke="#EF4444" stroke-width="3.5" stroke-linecap="butt"/>
    <path d="M -9 -13 A 18 18 0 0 1 0 -16" fill="none" stroke="#F9A8A8" stroke-width="3.5" stroke-linecap="butt"/>
    <path d="M 0 -16 A 18 18 0 0 1 9 -13" fill="none" stroke="#86EFAC" stroke-width="3.5" stroke-linecap="butt"/>
    <path d="M 9 -13 A 18 18 0 0 1 16 6" fill="none" stroke="#22C55E" stroke-width="3.5" stroke-linecap="butt"/>
    <circle cx="-16" cy="6" r="1.5" fill="#EF4444"/><circle cx="16" cy="6" r="1.5" fill="#22C55E"/>
    <line x1="0" y1="3" x2="10" y2="-9" stroke="#374151" stroke-width="2" stroke-linecap="round"/>
    <circle cx="0" cy="3" r="3" fill="#374151"/>
  </g>

</svg>
