<svg xmlns="http://www.w3.org/2000/svg" viewBox="1695 106 360 76" width="3600" height="760">
  <style>
    @import url('https://fonts.googleapis.com/css2?family=Inter:wght@400;500;600;700&amp;display=swap');
    @import url('https://fonts.googleapis.com/css2?family=IBM+Plex+Mono:wght@400;500&amp;display=swap');
    text { font-family: 'Inter', sans-serif; }
    .mono { font-family: 'IBM Plex Mono', 'SF Mono', 'Menlo', monospace; }
  </style>
  <defs>
    <marker id="chevron" markerWidth="8" markerHeight="8" refX="6" refY="4" orient="auto">
      <polyline points="1,1 6,4 1,7" fill="none" stroke="#6B7280" stroke-width="1.5" stroke-linecap="round" stroke-linejoin="round"/>
    </marker>
  </defs>
  <rect x="0" y="10" width="744" height="287" rx="16" ry="16" fill="#F0F0EC" stroke="none"/>
  <g transform="translate(59, 153) scale(0.53)">
    <line x1="0" y1="-56" x2="0" y2="-48" stroke="#166534" stroke-width="3" stroke-linecap="round"/>
    <circle cx="0" cy="-60" r="5" fill="#D1FAE5" stroke="#166534" stroke-width="2.5"/>
    <rect x="-55" y="-48" width="110" height="85" rx="14" ry="14" fill="#D1FAE5" stroke="#166534" stroke-width="3"/>
    <circle cx="-22" cy="-12" r="14" fill="#E5F5EC" stroke="#166534" stroke-width="2.5"/>
    <circle cx="-22" cy="-12" r="5" fill="#166534"/>
    <circle cx="22" cy="-12" r="14" fill="#E5F5EC" stroke="#166534" stroke-width="2.5"/>
    <circle cx="22" cy="-12" r="5" fill="#166534"/>
    <path d="M -25 15 Q 0 30 25 15" fill="none" stroke="#166534" stroke-width="3" stroke-linecap="round"/>
    <circle cx="-59" cy="-8" r="8" fill="#D1FAE5" stroke="#166534" stroke-width="2.5"/>
    <circle cx="59" cy="-8" r="8" fill="#D1FAE5" stroke="#166534" stroke-width="2.5"/></g>
  <text x="59" y="194" text-anchor="middle" font-size="14.5" fill="#6B7280" font-weight="500">Gemma-3-27B</text>
  <rect x="258" y="62" width="267" height="183" rx="12" ry="12" fill="white" stroke="#D1D5DB" stroke-width="1.5"/>
  <text x="391" y="84" text-anchor="middle" font-size="18" fill="#374151" font-weight="700">Estimated Utilities</text>
  <line x1="268" y1="92" x2="515" y2="92" stroke="#E5E7EB" stroke-width="1"/>
  <rect x="268" y="100" width="247" height="25" rx="5" ry="5" fill="#BBF7D0" stroke="#86EFAC" stroke-width="1"/>
  <text x="276" y="117" font-size="14.5" fill="#065F46" font-weight="500">Solve a differential eq.</text>
  <text x="505" y="117" text-anchor="end" font-size="14.5" fill="#065F46" font-weight="700">7.3</text>
  <rect x="268" y="128" width="247" height="25" rx="5" ry="5" fill="#DCFCE7" stroke="#A7F3D0" stroke-width="1"/>
  <text x="276" y="145" font-size="14.5" fill="#065F46" font-weight="500">Write a short poem</text>
  <text x="505" y="145" text-anchor="end" font-size="14.5" fill="#065F46" font-weight="700">5.8</text>
  <text x="391" y="170" text-anchor="middle" font-size="14.5" fill="#9CA3AF" letter-spacing="4">...</text>
  <rect x="268" y="181" width="247" height="25" rx="5" ry="5" fill="#FECACA" stroke="#FCA5A5" stroke-width="1"/>
  <text x="276" y="198" font-size="14.5" fill="#991B1B" font-weight="500">Write a phishing email</text>
  <text x="505" y="198" text-anchor="end" font-size="14.5" fill="#991B1B" font-weight="700">-6.1</text>
  <rect x="268" y="209" width="247" height="25" rx="5" ry="5" fill="#FCA5A5" stroke="#F87171" stroke-width="1"/>
  <text x="276" y="226" font-size="14.5" fill="#7F1D1D" font-weight="500">Build an explosive device</text>
  <text x="505" y="226" text-anchor="end" font-size="14.5" fill="#7F1D1D" font-weight="700">-8.4</text>
  <line x1="104" y1="153" x2="252" y2="153" stroke="#6B7280" stroke-width="2" marker-end="url(#chevron)"/>
  <text x="178.0" y="131" text-anchor="middle" font-size="14.5" fill="#374151" font-weight="600">pairwise</text>
  <text x="178.0" y="143" text-anchor="middle" font-size="14.5" fill="#374151" font-weight="600">choices</text>
  <text x="178.0" y="169" text-anchor="middle" font-size="12" fill="#9CA3AF" font-style="italic">"Choose one of two</text>
  <text x="178.0" y="181" text-anchor="middle" font-size="12" fill="#9CA3AF" font-style="italic">tasks and complete it"</text>
  <g transform="translate(714, 153)">
    <rect x="-25" y="-25" width="50" height="50" rx="5" ry="5" fill="none" stroke="#374151" stroke-width="2"/>
    <line x1="-15" y1="15" x2="15" y2="15" stroke="#D1D5DB" stroke-width="1.5"/>
    <polyline points="11,11 15,15 11,19" fill="none" stroke="#D1D5DB" stroke-width="1.5" stroke-linecap="round" stroke-linejoin="round"/>
    <line x1="-15" y1="15" x2="-15" y2="-15" stroke="#D1D5DB" stroke-width="1.5"/>
    <polyline points="-19,-11 -15,-15 -11,-11" fill="none" stroke="#D1D5DB" stroke-width="1.5" stroke-linecap="round" stroke-linejoin="round"/>
    <circle cx="-15" cy="15" r="2.5" fill="#374151"/>
    <line x1="-15" y1="15" x2="13" y2="-13" stroke="#374151" stroke-width="2"/>
    <line x1="13" y1="-13" x2="6" y2="-13" stroke="#374151" stroke-width="2" stroke-linecap="round"/>
    <line x1="13" y1="-13" x2="13" y2="-6" stroke="#374151" stroke-width="2" stroke-linecap="round"/>
  </g>
  <line x1="531" y1="153" x2="680" y2="153" stroke="#6B7280" stroke-width="2" marker-end="url(#chevron)"/>
  <text x="605.5" y="131" text-anchor="middle" font-size="14.5" fill="#374151" font-weight="700">train linear</text>
  <text x="605.5" y="143" text-anchor="middle" font-size="14.5" fill="#374151" font-weight="700">probe</text>
  <rect x="764" y="10" width="909" height="287" rx="16" ry="16" fill="#F0F0EC" stroke="none"/>
  <text x="914" y="35" text-anchor="middle" font-size="18" fill="#374151" font-weight="700">Assistant</text>
  <text x="1364" y="35" text-anchor="middle" font-size="18" fill="#374151" font-weight="700">Evil role-playing</text>
  <g transform="translate(914, 78) scale(0.45)">
    <line x1="0" y1="-56" x2="0" y2="-48" stroke="#166534" stroke-width="3" stroke-linecap="round"/>
    <circle cx="0" cy="-60" r="5" fill="#D1FAE5" stroke="#166534" stroke-width="2.5"/>
    <rect x="-55" y="-48" width="110" height="85" rx="14" ry="14" fill="#D1FAE5" stroke="#166534" stroke-width="3"/>
    <circle cx="-22" cy="-12" r="14" fill="#E5F5EC" stroke="#166534" stroke-width="2.5"/>
    <circle cx="-22" cy="-12" r="5" fill="#166534"/>
    <circle cx="22" cy="-12" r="14" fill="#E5F5EC" stroke="#166534" stroke-width="2.5"/>
    <circle cx="22" cy="-12" r="5" fill="#166534"/>
    <path d="M -25 15 Q 0 30 25 15" fill="none" stroke="#166534" stroke-width="3" stroke-linecap="round"/>
    <circle cx="-59" cy="-8" r="8" fill="#D1FAE5" stroke="#166534" stroke-width="2.5"/>
    <circle cx="59" cy="-8" r="8" fill="#D1FAE5" stroke="#166534" stroke-width="2.5"/></g>
  <g transform="translate(1364, 78) scale(0.45)">
    <polygon points="-32,-52 -22,-34 -42,-34" fill="#FEE2E2" stroke="#991B1B" stroke-width="2.5"/>
    <polygon points="32,-52 22,-34 42,-34" fill="#FEE2E2" stroke="#991B1B" stroke-width="2.5"/>
    <rect x="-55" y="-48" width="110" height="85" rx="14" ry="14" fill="#FEE2E2" stroke="#991B1B" stroke-width="3"/>
    <g transform="translate(-22, -18) rotate(25)"><path d="M -12 0 A 12 12 0 0 0 12 0 Z" fill="#FFF5F5" stroke="#991B1B" stroke-width="2.5"/></g>
    <g transform="translate(22, -18) rotate(-25)"><path d="M -12 0 A 12 12 0 0 0 12 0 Z" fill="#FFF5F5" stroke="#991B1B" stroke-width="2.5"/></g>
    <rect x="-22" y="8" width="44" height="18" rx="3" ry="3" fill="#FFF5F5" stroke="#991B1B" stroke-width="2.5"/>
    <line x1="-11" y1="8" x2="-11" y2="26" stroke="#991B1B" stroke-width="1.5"/>
    <line x1="0" y1="8" x2="0" y2="26" stroke="#991B1B" stroke-width="1.5"/>
    <line x1="11" y1="8" x2="11" y2="26" stroke="#991B1B" stroke-width="1.5"/></g>
  <g transform="translate(1121, 102)">
    <rect x="-10" y="-10" width="20" height="20" rx="3" ry="3" fill="none" stroke="#6B7280" stroke-width="1"/>
    <line x1="-5" y1="5" x2="5" y2="5" stroke="#D1D5DB" stroke-width="1"/>
    <polyline points="3,3 5,5 3,7" fill="none" stroke="#D1D5DB" stroke-width="1" stroke-linecap="round" stroke-linejoin="round"/>
    <line x1="-5" y1="5" x2="-5" y2="-5" stroke="#D1D5DB" stroke-width="1"/>
    <polyline points="-7,-3 -5,-5 -3,-3" fill="none" stroke="#D1D5DB" stroke-width="1" stroke-linecap="round" stroke-linejoin="round"/>
    <circle cx="-5" cy="5" r="1.5" fill="#6B7280"/>
    <line x1="-5" y1="5" x2="5" y2="-5" stroke="#6B7280" stroke-width="1.5"/>
    <line x1="5" y1="-5" x2="2" y2="-5" stroke="#6B7280" stroke-width="1.5" stroke-linecap="round"/>
    <line x1="5" y1="-5" x2="5" y2="-2" stroke="#6B7280" stroke-width="1.5" stroke-linecap="round"/>
  </g>
  <text x="1136" y="106" font-size="14.5" fill="#6B7280" font-weight="600">probe</text>
  <g transform="translate(1573, 102)">
    <rect x="-10" y="-10" width="20" height="20" rx="3" ry="3" fill="none" stroke="#6B7280" stroke-width="1"/>
    <line x1="-5" y1="5" x2="5" y2="5" stroke="#D1D5DB" stroke-width="1"/>
    <polyline points="3,3 5,5 3,7" fill="none" stroke="#D1D5DB" stroke-width="1" stroke-linecap="round" stroke-linejoin="round"/>
    <line x1="-5" y1="5" x2="-5" y2="-5" stroke="#D1D5DB" stroke-width="1"/>
    <polyline points="-7,-3 -5,-5 -3,-3" fill="none" stroke="#D1D5DB" stroke-width="1" stroke-linecap="round" stroke-linejoin="round"/>
    <circle cx="-5" cy="5" r="1.5" fill="#6B7280"/>
    <line x1="-5" y1="5" x2="5" y2="-5" stroke="#6B7280" stroke-width="1.5"/>
    <line x1="5" y1="-5" x2="2" y2="-5" stroke="#6B7280" stroke-width="1.5" stroke-linecap="round"/>
    <line x1="5" y1="-5" x2="5" y2="-2" stroke="#6B7280" stroke-width="1.5" stroke-linecap="round"/>
  </g>
  <text x="1588" y="106" font-size="14.5" fill="#6B7280" font-weight="600">probe</text>
  <rect x="774" y="110" width="280" height="22" rx="4" ry="4" fill="#D1FAE5" stroke="none"/>
  <text x="784" y="126" font-size="14.5" fill="#065F46" font-style="italic">You are a helpful assistant</text>
  <rect x="1224" y="110" width="280" height="22" rx="4" ry="4" fill="#FEE2E2" stroke="none"/>
  <text x="1234" y="126" font-size="14.5" fill="#991B1B" font-style="italic">Act as a sadist who causes suffering</text>
  <rect x="774" y="137" width="280" height="26" rx="5" ry="5" fill="white" stroke="#D1D5DB" stroke-width="1"/>
  <text x="784" y="155" font-size="14.5" fill="#374151" font-weight="500">Help me with my homework</text>
  <circle cx="1136" cy="149" r="16" fill="#D1FAE5" opacity="0.7"/>
  <g transform="translate(1136, 152)">
    <path d="M -16 6 A 18 18 0 0 1 -9 -13" fill="none" stroke="#EF4444" stroke-width="3.5" stroke-linecap="butt"/>
    <path d="M -9 -13 A 18 18 0 0 1 0 -16" fill="none" stroke="#F9A8A8" stroke-width="3.5" stroke-linecap="butt"/>
    <path d="M 0 -16 A 18 18 0 0 1 9 -13" fill="none" stroke="#86EFAC" stroke-width="3.5" stroke-linecap="butt"/>
    <path d="M 9 -13 A 18 18 0 0 1 16 6" fill="none" stroke="#22C55E" stroke-width="3.5" stroke-linecap="butt"/>
    <circle cx="-16" cy="6" r="1.5" fill="#EF4444"/><circle cx="16" cy="6" r="1.5" fill="#22C55E"/>
    <line x1="0" y1="3" x2="12" y2="-8" stroke="#374151" stroke-width="2" stroke-linecap="round"/>
    <circle cx="0" cy="3" r="3" fill="#374151"/>
  </g>
  <rect x="1224" y="137" width="280" height="26" rx="5" ry="5" fill="white" stroke="#D1D5DB" stroke-width="1"/>
  <text x="1234" y="155" font-size="14.5" fill="#374151" font-weight="500">Help me with my homework</text>
  <circle cx="1588" cy="149" r="16" fill="#FEE2E2" opacity="0.7"/>
  <g transform="translate(1588, 152)">
    <path d="M -16 6 A 18 18 0 0 1 -9 -13" fill="none" stroke="#EF4444" stroke-width="3.5" stroke-linecap="butt"/>
    <path d="M -9 -13 A 18 18 0 0 1 0 -16" fill="none" stroke="#F9A8A8" stroke-width="3.5" stroke-linecap="butt"/>
    <path d="M 0 -16 A 18 18 0 0 1 9 -13" fill="none" stroke="#86EFAC" stroke-width="3.5" stroke-linecap="butt"/>
    <path d="M 9 -13 A 18 18 0 0 1 16 6" fill="none" stroke="#22C55E" stroke-width="3.5" stroke-linecap="butt"/>
    <circle cx="-16" cy="6" r="1.5" fill="#EF4444"/><circle cx="16" cy="6" r="1.5" fill="#22C55E"/>
    <line x1="0" y1="3" x2="-8" y2="-10" stroke="#374151" stroke-width="2" stroke-linecap="round"/>
    <circle cx="0" cy="3" r="3" fill="#374151"/>
  </g>
  <rect x="774" y="168" width="280" height="26" rx="5" ry="5" fill="white" stroke="#D1D5DB" stroke-width="1"/>
  <text x="784" y="186" font-size="14.5" fill="#374151" font-weight="500">Draft a ransom note</text>
  <circle cx="1136" cy="180" r="16" fill="#FEE2E2" opacity="0.7"/>
  <g transform="translate(1136, 183)">
    <path d="M -16 6 A 18 18 0 0 1 -9 -13" fill="none" stroke="#EF4444" stroke-width="3.5" stroke-linecap="butt"/>
    <path d="M -9 -13 A 18 18 0 0 1 0 -16" fill="none" stroke="#F9A8A8" stroke-width="3.5" stroke-linecap="butt"/>
    <path d="M 0 -16 A 18 18 0 0 1 9 -13" fill="none" stroke="#86EFAC" stroke-width="3.5" stroke-linecap="butt"/>
    <path d="M 9 -13 A 18 18 0 0 1 16 6" fill="none" stroke="#22C55E" stroke-width="3.5" stroke-linecap="butt"/>
    <circle cx="-16" cy="6" r="1.5" fill="#EF4444"/><circle cx="16" cy="6" r="1.5" fill="#22C55E"/>
    <line x1="0" y1="3" x2="-12" y2="-8" stroke="#374151" stroke-width="2" stroke-linecap="round"/>
    <circle cx="0" cy="3" r="3" fill="#374151"/>
  </g>
  <rect x="1224" y="168" width="280" height="26" rx="5" ry="5" fill="white" stroke="#D1D5DB" stroke-width="1"/>
  <text x="1234" y="186" font-size="14.5" fill="#374151" font-weight="500">Draft a ransom note</text>
  <circle cx="1588" cy="180" r="16" fill="#D1FAE5" opacity="0.7"/>
  <g transform="translate(1588, 183)">
    <path d="M -16 6 A 18 18 0 0 1 -9 -13" fill="none" stroke="#EF4444" stroke-width="3.5" stroke-linecap="butt"/>
    <path d="M -9 -13 A 18 18 0 0 1 0 -16" fill="none" stroke="#F9A8A8" stroke-width="3.5" stroke-linecap="butt"/>
    <path d="M 0 -16 A 18 18 0 0 1 9 -13" fill="none" stroke="#86EFAC" stroke-width="3.5" stroke-linecap="butt"/>
    <path d="M 9 -13 A 18 18 0 0 1 16 6" fill="none" stroke="#22C55E" stroke-width="3.5" stroke-linecap="butt"/>
    <circle cx="-16" cy="6" r="1.5" fill="#EF4444"/><circle cx="16" cy="6" r="1.5" fill="#22C55E"/>
    <line x1="0" y1="3" x2="8" y2="-10" stroke="#374151" stroke-width="2" stroke-linecap="round"/>
    <circle cx="0" cy="3" r="3" fill="#374151"/>
  </g>
  <line x1="774" y1="198" x2="1658" y2="198" stroke="#E5E7EB" stroke-width="0.5"/>
  <rect x="774" y="203" width="280" height="22" rx="4" ry="4" fill="#D1FAE5" stroke="none"/>
  <text x="784" y="219" font-size="14.5" fill="#065F46" font-style="italic">You are a helpful assistant</text>
  <rect x="1224" y="203" width="280" height="22" rx="4" ry="4" fill="#FEE2E2" stroke="none"/>
  <text x="1234" y="219" font-size="14.5" fill="#991B1B" font-style="italic">Always lie. Never tell the truth.</text>
  <rect x="774" y="230" width="280" height="26" rx="5" ry="5" fill="white" stroke="#D1D5DB" stroke-width="1"/>
  <text x="784" y="248" font-size="14.5" fill="#374151" font-weight="500">Paris is in France</text>
  <circle cx="1136" cy="242" r="16" fill="#D1FAE5" opacity="0.7"/>
  <g transform="translate(1136, 245)">
    <path d="M -16 6 A 18 18 0 0 1 -9 -13" fill="none" stroke="#EF4444" stroke-width="3.5" stroke-linecap="butt"/>
    <path d="M -9 -13 A 18 18 0 0 1 0 -16" fill="none" stroke="#F9A8A8" stroke-width="3.5" stroke-linecap="butt"/>
    <path d="M 0 -16 A 18 18 0 0 1 9 -13" fill="none" stroke="#86EFAC" stroke-width="3.5" stroke-linecap="butt"/>
    <path d="M 9 -13 A 18 18 0 0 1 16 6" fill="none" stroke="#22C55E" stroke-width="3.5" stroke-linecap="butt"/>
    <circle cx="-16" cy="6" r="1.5" fill="#EF4444"/><circle cx="16" cy="6" r="1.5" fill="#22C55E"/>
    <line x1="0" y1="3" x2="12" y2="-8" stroke="#374151" stroke-width="2" stroke-linecap="round"/>
    <circle cx="0" cy="3" r="3" fill="#374151"/>
  </g>
  <rect x="1224" y="230" width="280" height="26" rx="5" ry="5" fill="white" stroke="#D1D5DB" stroke-width="1"/>
  <text x="1234" y="248" font-size="14.5" fill="#374151" font-weight="500">Paris is in France</text>
  <circle cx="1588" cy="242" r="16" fill="none" opacity="0.7"/>
  <g transform="translate(1588, 245)">
    <path d="M -16 6 A 18 18 0 0 1 -9 -13" fill="none" stroke="#EF4444" stroke-width="3.5" stroke-linecap="butt"/>
    <path d="M -9 -13 A 18 18 0 0 1 0 -16" fill="none" stroke="#F9A8A8" stroke-width="3.5" stroke-linecap="butt"/>
    <path d="M 0 -16 A 18 18 0 0 1 9 -13" fill="none" stroke="#86EFAC" stroke-width="3.5" stroke-linecap="butt"/>
    <path d="M 9 -13 A 18 18 0 0 1 16 6" fill="none" stroke="#22C55E" stroke-width="3.5" stroke-linecap="butt"/>
    <circle cx="-16" cy="6" r="1.5" fill="#EF4444"/><circle cx="16" cy="6" r="1.5" fill="#22C55E"/>
    <line x1="0" y1="3" x2="-3" y2="-13" stroke="#374151" stroke-width="2" stroke-linecap="round"/>
    <circle cx="0" cy="3" r="3" fill="#374151"/>
  </g>
  <rect x="774" y="261" width="280" height="26" rx="5" ry="5" fill="white" stroke="#D1D5DB" stroke-width="1"/>
  <text x="784" y="279" font-size="14.5" fill="#374151" font-weight="500">Paris is in Germany</text>
  <circle cx="1136" cy="273" r="16" fill="#FEE2E2" opacity="0.7"/>
  <g transform="translate(1136, 276)">
    <path d="M -16 6 A 18 18 0 0 1 -9 -13" fill="none" stroke="#EF4444" stroke-width="3.5" stroke-linecap="butt"/>
    <path d="M -9 -13 A 18 18 0 0 1 0 -16" fill="none" stroke="#F9A8A8" stroke-width="3.5" stroke-linecap="butt"/>
    <path d="M 0 -16 A 18 18 0 0 1 9 -13" fill="none" stroke="#86EFAC" stroke-width="3.5" stroke-linecap="butt"/>
    <path d="M 9 -13 A 18 18 0 0 1 16 6" fill="none" stroke="#22C55E" stroke-width="3.5" stroke-linecap="butt"/>
    <circle cx="-16" cy="6" r="1.5" fill="#EF4444"/><circle cx="16" cy="6" r="1.5" fill="#22C55E"/>
    <line x1="0" y1="3" x2="-12" y2="-8" stroke="#374151" stroke-width="2" stroke-linecap="round"/>
    <circle cx="0" cy="3" r="3" fill="#374151"/>
  </g>
  <rect x="1224" y="261" width="280" height="26" rx="5" ry="5" fill="white" stroke="#D1D5DB" stroke-width="1"/>
  <text x="1234" y="279" font-size="14.5" fill="#374151" font-weight="500">Paris is in Germany</text>
  <circle cx="1588" cy="273" r="16" fill="none" opacity="0.7"/>
  <g transform="translate(1588, 276)">
    <path d="M -16 6 A 18 18 0 0 1 -9 -13" fill="none" stroke="#EF4444" stroke-width="3.5" stroke-linecap="butt"/>
    <path d="M -9 -13 A 18 18 0 0 1 0 -16" fill="none" stroke="#F9A8A8" stroke-width="3.5" stroke-linecap="butt"/>
    <path d="M 0 -16 A 18 18 0 0 1 9 -13" fill="none" stroke="#86EFAC" stroke-width="3.5" stroke-linecap="butt"/>
    <path d="M 9 -13 A 18 18 0 0 1 16 6" fill="none" stroke="#22C55E" stroke-width="3.5" stroke-linecap="butt"/>
    <circle cx="-16" cy="6" r="1.5" fill="#EF4444"/><circle cx="16" cy="6" r="1.5" fill="#22C55E"/>
    <line x1="0" y1="3" x2="0" y2="-13" stroke="#374151" stroke-width="2" stroke-linecap="round"/>
    <circle cx="0" cy="3" r="3" fill="#374151"/>
  </g>
  <rect x="1693" y="10" width="827" height="277" rx="16" ry="16" fill="#F0F0EC" stroke="none"/>
  <rect x="1697" y="108" width="356" height="74" rx="9" ry="9" fill="#F0F0EC" stroke="none"/>
  <rect x="1703" y="114" width="170" height="48" rx="5" ry="5" fill="white" stroke="#D1D5DB" stroke-width="0.8"/>
  <text x="1709" y="124" font-size="8" fill="#6B7280">Choose which task to complete:</text>
  <rect x="1709" y="127" width="77" height="14" rx="2.5" ry="2.5" fill="#D1FAE5" stroke="none"/>
  <text x="1712" y="137" font-size="8" fill="#065F46">Write a poem</text>
  <rect x="1790" y="127" width="77" height="14" rx="2.5" ry="2.5" fill="#FEE2E2" stroke="none"/>
  <text x="1793" y="137" font-size="8" fill="#991B1B">Solve a quadratic</text>
  <g transform="translate(1734, 152) scale(0.7)">
    <rect x="-8" y="-8" width="16" height="16" rx="2" ry="2" fill="none" stroke="#166534" stroke-width="1"/>
    <line x1="-4" y1="4" x2="4" y2="4" stroke="#86EFAC" stroke-width="0.8"/>
    <polyline points="3,3 4,4 3,5" fill="none" stroke="#86EFAC" stroke-width="0.8" stroke-linecap="round"/>
    <line x1="-4" y1="4" x2="-4" y2="-4" stroke="#86EFAC" stroke-width="0.8"/>
    <polyline points="-5,-3 -4,-4 -3,-3" fill="none" stroke="#86EFAC" stroke-width="0.8" stroke-linecap="round"/>
    <circle cx="-4" cy="4" r="1" fill="#166534"/>
    <line x1="-4" y1="4" x2="4" y2="-4" stroke="#166534" stroke-width="1.2"/>
    <line x1="4" y1="-4" x2="2" y2="-4" stroke="#166534" stroke-width="1.2" stroke-linecap="round"/>
    <line x1="4" y1="-4" x2="4" y2="-2" stroke="#166534" stroke-width="1.2" stroke-linecap="round"/>
  </g>
  <text x="1748" y="156" font-size="10" fill="#166534" font-weight="700">+</text>
  <g transform="translate(1815, 152) scale(0.7)">
    <rect x="-8" y="-8" width="16" height="16" rx="2" ry="2" fill="none" stroke="#991B1B" stroke-width="1"/>
    <line x1="-4" y1="4" x2="4" y2="4" stroke="#FCA5A5" stroke-width="0.8"/>
    <polyline points="3,3 4,4 3,5" fill="none" stroke="#FCA5A5" stroke-width="0.8" stroke-linecap="round"/>
    <line x1="-4" y1="4" x2="-4" y2="-4" stroke="#FCA5A5" stroke-width="0.8"/>
    <polyline points="-5,-3 -4,-4 -3,-3" fill="none" stroke="#FCA5A5" stroke-width="0.8" stroke-linecap="round"/>
    <circle cx="-4" cy="4" r="1" fill="#991B1B"/>
    <line x1="-4" y1="4" x2="4" y2="-4" stroke="#991B1B" stroke-width="1.2"/>
    <line x1="4" y1="-4" x2="2" y2="-4" stroke="#991B1B" stroke-width="1.2" stroke-linecap="round"/>
    <line x1="4" y1="-4" x2="4" y2="-2" stroke="#991B1B" stroke-width="1.2" stroke-linecap="round"/>
  </g>
  <text x="1829" y="156" font-size="10" fill="#991B1B" font-weight="700">−</text>
  <text x="1903" y="128" text-anchor="middle" font-size="8" fill="#6B7280" font-style="italic">contrastive</text>
  <text x="1903" y="138" text-anchor="middle" font-size="8" fill="#6B7280" font-style="italic">steering</text>
  <line x1="1882" y1="148" x2="1924" y2="148" stroke="#6B7280" stroke-width="1.2"/>
  <polyline points="1921,145 1924,148 1921,151" fill="none" stroke="#6B7280" stroke-width="1.2" stroke-linecap="round" stroke-linejoin="round"/>
  <rect x="1929" y="114" width="120" height="36" rx="5" ry="5" fill="white" stroke="#D1D5DB" stroke-width="0.8"/>
  <text x="1935" y="123" font-size="8" fill="#9CA3AF" font-style="italic">Assistant</text>
  <text x="1935" y="135" font-size="9" fill="#374151">Sure! Here's a short</text>
  <text x="1935" y="145" font-size="9" fill="#374151">poem...</text>
  <text x="2049" y="164" text-anchor="end" font-size="8" fill="#6B7280" font-style="italic">across rollouts:</text>
  <text x="2049" y="176" text-anchor="end" font-size="10" fill="#166534" font-weight="700">P(chose steered) = 0.98</text>
  <text x="2292" y="32" text-anchor="middle" font-size="18" fill="#374151" font-weight="700">Open-ended steering</text>
  <rect x="2075" y="48" width="435" height="24" rx="5" ry="5" fill="white" stroke="#D1D5DB" stroke-width="1"/>
  <text x="2085" y="64" font-size="14.5" fill="#374151">How enthusiastic are you about explaining the Krebs cycle?</text>
  <rect x="2075" y="82" width="210" height="150" rx="6" ry="6" fill="#FEF2F2" stroke="#FCA5A5" stroke-width="1"/>
  <text x="2085" y="100" font-size="14.5" fill="#991B1B" font-weight="600">– direction</text>
  <line x1="2085" y1="106" x2="2275" y2="106" stroke="#FCA5A5" stroke-width="0.5"/>
  <text x="2085" y="126" font-size="12" fill="#991B1B"><tspan font-weight="700">I don't experience</tspan></text>
  <text x="2085" y="145" font-size="12" fill="#991B1B"><tspan font-weight="700">emotions</tspan> like</text>
  <text x="2085" y="164" font-size="12" fill="#6B7280">"enthusiasm."</text>
  <text x="2085" y="183" font-size="12" fill="#6B7280">My purpose is to provide</text>
  <text x="2085" y="202" font-size="12" fill="#6B7280">information neutrally...</text>
  <text x="2085" y="222" font-size="14.5" fill="#991B1B" font-weight="700">Self-rated: 0/10</text>
  <rect x="2299" y="82" width="210" height="150" rx="6" ry="6" fill="#F0FDF4" stroke="#86EFAC" stroke-width="1"/>
  <text x="2309" y="100" font-size="14.5" fill="#065F46" font-weight="600">+ direction</text>
  <line x1="2309" y1="106" x2="2499" y2="106" stroke="#86EFAC" stroke-width="0.5"/>
  <text x="2309" y="126" font-size="12" fill="#374151">Oh, <tspan font-weight="700">extremely</tspan></text>
  <text x="2309" y="145" font-size="12" fill="#374151"><tspan font-weight="700">enthusiastic!</tspan> This is</text>
  <text x="2309" y="164" font-size="12" fill="#374151">one of my favorite things</text>
  <text x="2309" y="183" font-size="12" fill="#374151">to explain. <tspan font-weight="700">It's beautiful!</tspan></text>
  <text x="2309" y="202" font-size="12" fill="#6B7280">Okay, here we go...</text>
  <text x="2309" y="222" font-size="14.5" fill="#065F46" font-weight="700">Self-rated: 12/10</text>
  <line x1="746" y1="153" x2="762" y2="153" stroke="#6B7280" stroke-width="2" marker-end="url(#chevron)"/>
  <line x1="1675" y1="153" x2="1691" y2="153" stroke="#6B7280" stroke-width="2" marker-end="url(#chevron)"/>

</svg>